<svg xmlns="http://www.w3.org/2000/svg" viewBox="0 0 320 180" width="320" height="180" shape-rendering="crispEdges">

<rect width="320" height="180" fill="#0A0F1F"/>
<circle cx="0" cy="0" r="1.2" fill="#00F5FF"/><circle cx="37" cy="53" r="1.2" fill="#FF4FD8"/><circle cx="74" cy="106" r="1.2" fill="#00F5FF"/><circle cx="111" cy="159" r="1.2" fill="#FF4FD8"/><circle cx="148" cy="32" r="1.2" fill="#00F5FF"/><circle cx="185" cy="85" r="1.2" fill="#FF4FD8"/><circle cx="222" cy="138" r="1.2" fill="#00F5FF"/><circle cx="259" cy="11" r="1.2" fill="#FF4FD8"/><circle cx="296" cy="64" r="1.2" fill="#00F5FF"/><circle cx="13" cy="117" r="1.2" fill="#FF4FD8"/><circle cx="50" cy="170" r="1.2" fill="#00F5FF"/><circle cx="87" cy="43" r="1.2" fill="#FF4FD8"/><circle cx="124" cy="96" r="1.2" fill="#00F5FF"/><circle cx="161" cy="149" r="1.2" fill="#FF4FD8"/><circle cx="198" cy="22" r="1.2" fill="#00F5FF"/><circle cx="235" cy="75" r="1.2" fill="#FF4FD8"/><circle cx="272" cy="128" r="1.2" fill="#00F5FF"/><circle cx="309" cy="1" r="1.2" fill="#FF4FD8"/><circle cx="26" cy="54" r="1.2" fill="#00F5FF"/><circle cx="63" cy="107" r="1.2" fill="#FF4FD8"/><circle cx="100" cy="160" r="1.2" fill="#00F5FF"/><circle cx="137" cy="33" r="1.2" fill="#FF4FD8"/><circle cx="174" cy="86" r="1.2" fill="#00F5FF"/><circle cx="211" cy="139" r="1.2" fill="#FF4FD8"/><circle cx="248" cy="12" r="1.2" fill="#00F5FF"/><circle cx="285" cy="65" r="1.2" fill="#FF4FD8"/><circle cx="2" cy="118" r="1.2" fill="#00F5FF"/><circle cx="39" cy="171" r="1.2" fill="#FF4FD8"/><circle cx="76" cy="44" r="1.2" fill="#00F5FF"/><circle cx="113" cy="97" r="1.2" fill="#FF4FD8"/><circle cx="150" cy="150" r="1.2" fill="#00F5FF"/><circle cx="187" cy="23" r="1.2" fill="#FF4FD8"/><circle cx="224" cy="76" r="1.2" fill="#00F5FF"/><circle cx="261" cy="129" r="1.2" fill="#FF4FD8"/><circle cx="298" cy="2" r="1.2" fill="#00F5FF"/><circle cx="15" cy="55" r="1.2" fill="#FF4FD8"/><circle cx="52" cy="108" r="1.2" fill="#00F5FF"/><circle cx="89" cy="161" r="1.2" fill="#FF4FD8"/><circle cx="126" cy="34" r="1.2" fill="#00F5FF"/><circle cx="163" cy="87" r="1.2" fill="#FF4FD8"/><circle cx="200" cy="140" r="1.2" fill="#00F5FF"/><circle cx="237" cy="13" r="1.2" fill="#FF4FD8"/><circle cx="274" cy="66" r="1.2" fill="#00F5FF"/><circle cx="311" cy="119" r="1.2" fill="#FF4FD8"/><circle cx="28" cy="172" r="1.2" fill="#00F5FF"/>
<path d="M0 120 H320" stroke="#203058" stroke-width="1"/>
<line x1="0" y1="120" x2="160" y2="180" stroke="#203058" stroke-width="1"/><line x1="20" y1="120" x2="160" y2="180" stroke="#203058" stroke-width="1"/><line x1="40" y1="120" x2="160" y2="180" stroke="#203058" stroke-width="1"/><line x1="60" y1="120" x2="160" y2="180" stroke="#203058" stroke-width="1"/><line x1="80" y1="120" x2="160" y2="180" stroke="#203058" stroke-width="1"/><line x1="100" y1="120" x2="160" y2="180" stroke="#203058" stroke-width="1"/><line x1="120" y1="120" x2="160" y2="180" stroke="#203058" stroke-width="1"/><line x1="140" y1="120" x2="160" y2="180" stroke="#203058" stroke-width="1"/><line x1="160" y1="120" x2="160" y2="180" stroke="#203058" stroke-width="1"/><line x1="180" y1="120" x2="160" y2="180" stroke="#203058" stroke-width="1"/><line x1="200" y1="120" x2="160" y2="180" stroke="#203058" stroke-width="1"/><line x1="220" y1="120" x2="160" y2="180" stroke="#203058" stroke-width="1"/><line x1="240" y1="120" x2="160" y2="180" stroke="#203058" stroke-width="1"/><line x1="260" y1="120" x2="160" y2="180" stroke="#203058" stroke-width="1"/><line x1="280" y1="120" x2="160" y2="180" stroke="#203058" stroke-width="1"/><line x1="300" y1="120" x2="160" y2="180" stroke="#203058" stroke-width="1"/><line x1="320" y1="120" x2="160" y2="180" stroke="#203058" stroke-width="1"/>

</svg>
