<svg xmlns="http://www.w3.org/2000/svg" viewBox="0 0 320 180" width="320" height="180" shape-rendering="crispEdges">

<rect width="320" height="180" fill="#080A18"/>
<rect x="0" y="20" width="6" height="60" fill="#00F5FF22" stroke="#00F5FF55" stroke-width="1"/><rect x="29" y="51" width="8" height="67" fill="#FF4FD822" stroke="#FF4FD855" stroke-width="1"/><rect x="58" y="82" width="10" height="74" fill="#44FF8822" stroke="#44FF8855" stroke-width="1"/><rect x="87" y="33" width="12" height="81" fill="#FFD84D22" stroke="#FFD84D55" stroke-width="1"/><rect x="116" y="64" width="6" height="88" fill="#45A3FF22" stroke="#45A3FF55" stroke-width="1"/><rect x="145" y="95" width="8" height="95" fill="#8A5CFF22" stroke="#8A5CFF55" stroke-width="1"/><rect x="174" y="46" width="10" height="102" fill="#FF4D5A22" stroke="#FF4D5A55" stroke-width="1"/><rect x="203" y="77" width="12" height="109" fill="#00F5FF22" stroke="#00F5FF55" stroke-width="1"/><rect x="232" y="28" width="6" height="116" fill="#FF4FD822" stroke="#FF4FD855" stroke-width="1"/><rect x="261" y="59" width="8" height="63" fill="#44FF8822" stroke="#44FF8855" stroke-width="1"/><rect x="290" y="90" width="10" height="70" fill="#FFD84D22" stroke="#FFD84D55" stroke-width="1"/><rect x="319" y="41" width="12" height="77" fill="#45A3FF22" stroke="#45A3FF55" stroke-width="1"/><rect x="28" y="72" width="6" height="84" fill="#8A5CFF22" stroke="#8A5CFF55" stroke-width="1"/><rect x="57" y="23" width="8" height="91" fill="#FF4D5A22" stroke="#FF4D5A55" stroke-width="1"/><rect x="86" y="54" width="10" height="98" fill="#00F5FF22" stroke="#00F5FF55" stroke-width="1"/><rect x="115" y="85" width="12" height="105" fill="#FF4FD822" stroke="#FF4FD855" stroke-width="1"/><rect x="144" y="36" width="6" height="112" fill="#44FF8822" stroke="#44FF8855" stroke-width="1"/><rect x="173" y="67" width="8" height="119" fill="#FFD84D22" stroke="#FFD84D55" stroke-width="1"/>
<path d="M0 150 H320" stroke="#00F5FF" stroke-width="1"/>
<rect x="10" y="110" width="10" height="40" fill="#00F5FF55"/><rect x="30" y="90" width="10" height="60" fill="#FF4FD855"/><rect x="55" y="100" width="10" height="50" fill="#44FF8855"/><rect x="85" y="75" width="10" height="75" fill="#45A3FF55"/><rect x="115" y="95" width="10" height="55" fill="#8A5CFF55"/><rect x="145" y="65" width="10" height="85" fill="#00F5FF55"/><rect x="175" y="105" width="10" height="45" fill="#FF4FD855"/><rect x="205" y="80" width="10" height="70" fill="#FFD84D55"/><rect x="235" y="92" width="10" height="58" fill="#45A3FF55"/><rect x="265" y="70" width="10" height="80" fill="#FF4D5A55"/><rect x="295" y="100" width="10" height="50" fill="#00F5FF55"/>

</svg>
