<svg xmlns="http://www.w3.org/2000/svg" viewBox="0 0 320 180" width="320" height="180" shape-rendering="crispEdges">

<rect width="320" height="180" fill="#090611"/>
<circle cx="160" cy="90" r="46" fill="none" stroke="#FF4FD8" stroke-width="2"/>
<circle cx="160" cy="90" r="28" fill="none" stroke="#00F5FF" stroke-width="2"/>
<rect x="0" y="0" width="6" height="3" fill="#00F5FF"/><rect x="17" y="23" width="6" height="3" fill="#FF4FD8"/><rect x="34" y="46" width="6" height="3" fill="#44FF88"/><rect x="51" y="69" width="6" height="3" fill="#FFD84D"/><rect x="68" y="92" width="6" height="3" fill="#45A3FF"/><rect x="85" y="115" width="6" height="3" fill="#8A5CFF"/><rect x="102" y="138" width="6" height="3" fill="#FF4D5A"/><rect x="119" y="161" width="6" height="3" fill="#00F5FF"/><rect x="136" y="4" width="6" height="3" fill="#FF4FD8"/><rect x="153" y="27" width="6" height="3" fill="#44FF88"/><rect x="170" y="50" width="6" height="3" fill="#FFD84D"/><rect x="187" y="73" width="6" height="3" fill="#45A3FF"/><rect x="204" y="96" width="6" height="3" fill="#8A5CFF"/><rect x="221" y="119" width="6" height="3" fill="#FF4D5A"/><rect x="238" y="142" width="6" height="3" fill="#00F5FF"/><rect x="255" y="165" width="6" height="3" fill="#FF4FD8"/><rect x="272" y="8" width="6" height="3" fill="#44FF88"/><rect x="289" y="31" width="6" height="3" fill="#FFD84D"/><rect x="306" y="54" width="6" height="3" fill="#45A3FF"/><rect x="3" y="77" width="6" height="3" fill="#8A5CFF"/><rect x="20" y="100" width="6" height="3" fill="#FF4D5A"/><rect x="37" y="123" width="6" height="3" fill="#00F5FF"/><rect x="54" y="146" width="6" height="3" fill="#FF4FD8"/><rect x="71" y="169" width="6" height="3" fill="#44FF88"/><rect x="88" y="12" width="6" height="3" fill="#FFD84D"/><rect x="105" y="35" width="6" height="3" fill="#45A3FF"/><rect x="122" y="58" width="6" height="3" fill="#8A5CFF"/><rect x="139" y="81" width="6" height="3" fill="#FF4D5A"/><rect x="156" y="104" width="6" height="3" fill="#00F5FF"/><rect x="173" y="127" width="6" height="3" fill="#FF4FD8"/><rect x="190" y="150" width="6" height="3" fill="#44FF88"/><rect x="207" y="173" width="6" height="3" fill="#FFD84D"/><rect x="224" y="16" width="6" height="3" fill="#45A3FF"/><rect x="241" y="39" width="6" height="3" fill="#8A5CFF"/><rect x="258" y="62" width="6" height="3" fill="#FF4D5A"/><rect x="275" y="85" width="6" height="3" fill="#00F5FF"/><rect x="292" y="108" width="6" height="3" fill="#FF4FD8"/><rect x="309" y="131" width="6" height="3" fill="#44FF88"/><rect x="6" y="154" width="6" height="3" fill="#FFD84D"/><rect x="23" y="177" width="6" height="3" fill="#45A3FF"/><rect x="40" y="20" width="6" height="3" fill="#8A5CFF"/><rect x="57" y="43" width="6" height="3" fill="#FF4D5A"/><rect x="74" y="66" width="6" height="3" fill="#00F5FF"/><rect x="91" y="89" width="6" height="3" fill="#FF4FD8"/><rect x="108" y="112" width="6" height="3" fill="#44FF88"/><rect x="125" y="135" width="6" height="3" fill="#FFD84D"/><rect x="142" y="158" width="6" height="3" fill="#45A3FF"/><rect x="159" y="1" width="6" height="3" fill="#8A5CFF"/><rect x="176" y="24" width="6" height="3" fill="#FF4D5A"/><rect x="193" y="47" width="6" height="3" fill="#00F5FF"/><rect x="210" y="70" width="6" height="3" fill="#FF4FD8"/><rect x="227" y="93" width="6" height="3" fill="#44FF88"/><rect x="244" y="116" width="6" height="3" fill="#FFD84D"/><rect x="261" y="139" width="6" height="3" fill="#45A3FF"/><rect x="278" y="162" width="6" height="3" fill="#8A5CFF"/><rect x="295" y="5" width="6" height="3" fill="#FF4D5A"/><rect x="312" y="28" width="6" height="3" fill="#00F5FF"/><rect x="9" y="51" width="6" height="3" fill="#FF4FD8"/><rect x="26" y="74" width="6" height="3" fill="#44FF88"/><rect x="43" y="97" width="6" height="3" fill="#FFD84D"/><rect x="60" y="120" width="6" height="3" fill="#45A3FF"/><rect x="77" y="143" width="6" height="3" fill="#8A5CFF"/><rect x="94" y="166" width="6" height="3" fill="#FF4D5A"/><rect x="111" y="9" width="6" height="3" fill="#00F5FF"/><rect x="128" y="32" width="6" height="3" fill="#FF4FD8"/><rect x="145" y="55" width="6" height="3" fill="#44FF88"/><rect x="162" y="78" width="6" height="3" fill="#FFD84D"/><rect x="179" y="101" width="6" height="3" fill="#45A3FF"/><rect x="196" y="124" width="6" height="3" fill="#8A5CFF"/><rect x="213" y="147" width="6" height="3" fill="#FF4D5A"/><rect x="230" y="170" width="6" height="3" fill="#00F5FF"/><rect x="247" y="13" width="6" height="3" fill="#FF4FD8"/><rect x="264" y="36" width="6" height="3" fill="#44FF88"/><rect x="281" y="59" width="6" height="3" fill="#FFD84D"/><rect x="298" y="82" width="6" height="3" fill="#45A3FF"/><rect x="315" y="105" width="6" height="3" fill="#8A5CFF"/><rect x="12" y="128" width="6" height="3" fill="#FF4D5A"/><rect x="29" y="151" width="6" height="3" fill="#00F5FF"/><rect x="46" y="174" width="6" height="3" fill="#FF4FD8"/><rect x="63" y="17" width="6" height="3" fill="#44FF88"/>
<path d="M0 120 Q80 110 160 120 T320 120" stroke="#8A5CFF" stroke-width="1" fill="none" opacity="0.5"/><path d="M0 135 Q80 125 160 135 T320 135" stroke="#00F5FF" stroke-width="1" fill="none" opacity="0.5"/><path d="M0 150 Q80 140 160 150 T320 150" stroke="#00F5FF" stroke-width="1" fill="none" opacity="0.5"/><path d="M0 165 Q80 155 160 165 T320 165" stroke="#00F5FF" stroke-width="1" fill="none" opacity="0.5"/>

</svg>
