<svg xmlns="http://www.w3.org/2000/svg" viewBox="0 0 256 256" width="256" height="256" shape-rendering="crispEdges">
<rect x="0" y="0" width="32" height="32" fill="#0A0F1F" stroke="#203058" stroke-width="1"/>
<rect x="3" y="10" width="26" height="12" fill="#00F5FF" stroke="#111A33" stroke-width="1"/>
<rect x="3" y="8" width="26" height="3" fill="#ffffff22"/>
<rect x="32" y="0" width="32" height="32" fill="#0A0F1F" stroke="#203058" stroke-width="1"/>
<rect x="35" y="10" width="26" height="12" fill="#FF4FD8" stroke="#111A33" stroke-width="1"/>
<rect x="35" y="8" width="26" height="3" fill="#ffffff22"/>
<line x1="40" y1="14" x2="56" y2="18" stroke="#0A0F1F" stroke-width="1"/>
<rect x="64" y="0" width="32" height="32" fill="#0A0F1F" stroke="#203058" stroke-width="1"/>
<rect x="67" y="10" width="26" height="12" fill="#FFD84D" stroke="#111A33" stroke-width="1"/>
<rect x="67" y="8" width="26" height="3" fill="#ffffff22"/>
<circle cx="80" cy="16" r="5" fill="none" stroke="#0A0F1F" stroke-width="2"/>
<line x1="80" y1="16" x2="86" y2="10" stroke="#0A0F1F" stroke-width="2"/>
<rect x="96" y="0" width="32" height="32" fill="#0A0F1F" stroke="#203058" stroke-width="1"/>
<rect x="99" y="10" width="26" height="12" fill="#8A5CFF" stroke="#111A33" stroke-width="1"/>
<rect x="99" y="8" width="26" height="3" fill="#ffffff22"/>
<rect x="102" y="6" width="5" height="3" fill="#FF4FD8"/>
<rect x="116" y="21" width="6" height="3" fill="#00F5FF"/>
<rect x="128" y="0" width="32" height="32" fill="#0A0F1F" stroke="#203058" stroke-width="1"/>
<rect x="131" y="10" width="26" height="12" fill="#44FF88" stroke="#111A33" stroke-width="1"/>
<rect x="131" y="8" width="26" height="3" fill="#ffffff22"/>
<line x1="136" y1="23" x2="144" y2="11" stroke="#F5F5F5" stroke-width="2"/>
<line x1="144" y1="11" x2="152" y2="23" stroke="#F5F5F5" stroke-width="2"/>
<rect x="160" y="0" width="32" height="32" fill="#0A0F1F" stroke="#203058" stroke-width="1"/>
<rect x="163" y="10" width="26" height="12" fill="#45A3FF" stroke="#111A33" stroke-width="1"/>
<rect x="163" y="8" width="26" height="3" fill="#ffffff22"/>
<circle cx="176" cy="6" r="4" fill="#45A3FF"/>
<rect x="192" y="0" width="32" height="32" fill="#0A0F1F" stroke="#203058" stroke-width="1"/>
<rect x="195" y="10" width="26" height="12" fill="#6E7B91" stroke="#111A33" stroke-width="1"/>
<rect x="195" y="8" width="26" height="3" fill="#ffffff22"/>
<circle cx="200" cy="16" r="1.5" fill="#0A0F1F"/>
<circle cx="208" cy="16" r="1.5" fill="#0A0F1F"/>
<circle cx="216" cy="16" r="1.5" fill="#0A0F1F"/>
<rect x="224" y="0" width="32" height="32" fill="#0A0F1F" stroke="#203058" stroke-width="1"/>
<rect x="227" y="10" width="26" height="12" fill="#7A5CFF" stroke="#111A33" stroke-width="1"/>
<rect x="227" y="8" width="26" height="3" fill="#ffffff22"/>
<line x1="232" y1="16" x2="248" y2="16" stroke="#00F5FF" stroke-width="2"/>
<line x1="240" y1="8" x2="240" y2="24" stroke="#00F5FF" stroke-width="2"/>
<rect x="0" y="32" width="32" height="32" fill="#0A0F1F" stroke="#203058" stroke-width="1"/>
<rect x="3" y="42" width="26" height="12" fill="#00F5FF" stroke="#111A33" stroke-width="1"/>
<rect x="3" y="40" width="26" height="3" fill="#ffffff22"/>
<line x1="6" y1="58" x2="26" y2="58" stroke="#F5F5F5" stroke-width="2"/>
<line x1="6" y1="58" x2="10" y2="54" stroke="#F5F5F5" stroke-width="2"/>
<line x1="26" y1="58" x2="22" y2="54" stroke="#F5F5F5" stroke-width="2"/>
<rect x="32" y="32" width="32" height="32" fill="#0A0F1F" stroke="#203058" stroke-width="1"/>
<rect x="35" y="42" width="26" height="12" fill="#FFD84D" stroke="#111A33" stroke-width="1"/>
<rect x="35" y="40" width="26" height="3" fill="#ffffff22"/>
<line x1="42" y1="48" x2="38" y2="48" stroke="#0A0F1F" stroke-width="2"/>
<line x1="38" y1="48" x2="41" y2="45" stroke="#0A0F1F" stroke-width="2"/>
<line x1="38" y1="48" x2="41" y2="51" stroke="#0A0F1F" stroke-width="2"/>
<line x1="48" y1="48" x2="44" y2="48" stroke="#0A0F1F" stroke-width="2"/>
<line x1="44" y1="48" x2="47" y2="45" stroke="#0A0F1F" stroke-width="2"/>
<line x1="44" y1="48" x2="47" y2="51" stroke="#0A0F1F" stroke-width="2"/>
<line x1="54" y1="48" x2="50" y2="48" stroke="#0A0F1F" stroke-width="2"/>
<line x1="50" y1="48" x2="53" y2="45" stroke="#0A0F1F" stroke-width="2"/>
<line x1="50" y1="48" x2="53" y2="51" stroke="#0A0F1F" stroke-width="2"/>
<rect x="64" y="32" width="32" height="32" fill="#0A0F1F" stroke="#203058" stroke-width="1"/>
<rect x="67" y="42" width="26" height="12" fill="#FFD84D" stroke="#111A33" stroke-width="1"/>
<rect x="67" y="40" width="26" height="3" fill="#ffffff22"/>
<line x1="74" y1="48" x2="78" y2="48" stroke="#0A0F1F" stroke-width="2"/>
<line x1="78" y1="48" x2="75" y2="45" stroke="#0A0F1F" stroke-width="2"/>
<line x1="78" y1="48" x2="75" y2="51" stroke="#0A0F1F" stroke-width="2"/>
<line x1="80" y1="48" x2="84" y2="48" stroke="#0A0F1F" stroke-width="2"/>
<line x1="84" y1="48" x2="81" y2="45" stroke="#0A0F1F" stroke-width="2"/>
<line x1="84" y1="48" x2="81" y2="51" stroke="#0A0F1F" stroke-width="2"/>
<line x1="86" y1="48" x2="90" y2="48" stroke="#0A0F1F" stroke-width="2"/>
<line x1="90" y1="48" x2="87" y2="45" stroke="#0A0F1F" stroke-width="2"/>
<line x1="90" y1="48" x2="87" y2="51" stroke="#0A0F1F" stroke-width="2"/>
<rect x="96" y="32" width="32" height="32" fill="#0A0F1F" stroke="#203058" stroke-width="1"/>
<rect x="99" y="42" width="26" height="12" fill="#FF4FD8" stroke="#111A33" stroke-width="1"/>
<rect x="99" y="40" width="26" height="3" fill="#ffffff22"/>
<rect x="101" y="37" width="4" height="4" fill="#FFFFFF55"/>
<rect x="119" y="55" width="4" height="4" fill="#FFFFFF55"/>
<rect x="128" y="32" width="32" height="32" fill="#0A0F1F" stroke="#203058" stroke-width="1"/>
<rect x="131" y="42" width="26" height="12" fill="#44FF88" stroke="#111A33" stroke-width="1"/>
<rect x="131" y="40" width="26" height="3" fill="#ffffff22"/>
<line x1="144" y1="56" x2="144" y2="40" stroke="#0A0F1F" stroke-width="2"/>
<line x1="144" y1="40" x2="139" y2="45" stroke="#0A0F1F" stroke-width="2"/>
<line x1="144" y1="40" x2="149" y2="45" stroke="#0A0F1F" stroke-width="2"/>
<rect x="160" y="32" width="32" height="32" fill="#0A0F1F" stroke="#203058" stroke-width="1"/>
<rect x="163" y="42" width="26" height="12" fill="#FF4D5A" stroke="#111A33" stroke-width="1"/>
<rect x="163" y="40" width="26" height="3" fill="#ffffff22"/>
<line x1="168" y1="44" x2="183" y2="52" stroke="#0A0F1F" stroke-width="2"/>
<line x1="178" y1="42" x2="170" y2="54" stroke="#0A0F1F" stroke-width="2"/>
<rect x="192" y="32" width="32" height="32" fill="#0A0F1F" stroke="#203058" stroke-width="1"/>
<rect x="195" y="42" width="26" height="12" fill="#9BE8FF" stroke="#111A33" stroke-width="1"/>
<rect x="195" y="40" width="26" height="3" fill="#ffffff22"/>
<line x1="199" y1="55" x2="217" y2="55" stroke="#F5F5F5" stroke-width="2"/>
<line x1="201" y1="45" x2="215" y2="51" stroke="#F5F5F5" stroke-width="1"/>
<rect x="224" y="32" width="32" height="32" fill="#0A0F1F" stroke="#203058" stroke-width="1"/>
<rect x="227" y="42" width="26" height="12" fill="#00F5FF" stroke="#111A33" stroke-width="1"/>
<rect x="227" y="40" width="26" height="3" fill="#ffffff22"/>
<circle cx="234" cy="48" r="2" fill="#FF4FD8"/>
<circle cx="240" cy="48" r="2" fill="#FF4FD8"/>
<circle cx="246" cy="48" r="2" fill="#FF4FD8"/>
<rect x="0" y="64" width="32" height="32" fill="#0A0F1F" stroke="#203058" stroke-width="1"/>
<line x1="8" y1="64" x2="8" y2="96" stroke="#00F5FF" stroke-width="1"/>
<line x1="0" y1="72" x2="32" y2="72" stroke="#00F5FF" stroke-width="1"/>
<line x1="16" y1="64" x2="16" y2="96" stroke="#00F5FF" stroke-width="1"/>
<line x1="0" y1="80" x2="32" y2="80" stroke="#00F5FF" stroke-width="1"/>
<line x1="24" y1="64" x2="24" y2="96" stroke="#00F5FF" stroke-width="1"/>
<line x1="0" y1="88" x2="32" y2="88" stroke="#00F5FF" stroke-width="1"/>
<rect x="32" y="64" width="32" height="32" fill="#0A0F1F" stroke="#203058" stroke-width="1"/>
<path d="M 32 82 Q 40 72 48 82 T 64 82" stroke="#FF4FD8" stroke-width="2" fill="none"/>
<rect x="64" y="64" width="32" height="32" fill="#0A0F1F" stroke="#203058" stroke-width="1"/>
<circle cx="80" cy="80" r="10" fill="none" stroke="#00F5FF" stroke-width="2"/>
<circle cx="80" cy="80" r="6" fill="none" stroke="#FF4FD8" stroke-width="2"/>
<rect x="96" y="64" width="32" height="32" fill="#0A0F1F" stroke="#203058" stroke-width="1"/>
<rect x="102" y="70" width="6" height="6" fill="#00F5FF"/>
<rect x="114" y="74" width="6" height="6" fill="#FF4FD8"/>
<rect x="106" y="84" width="6" height="6" fill="#44FF88"/>
<rect x="128" y="64" width="32" height="32" fill="#0A0F1F" stroke="#203058" stroke-width="1"/>
<polygon points="132,90 138,74 144,90" fill="#FF4D5A"/><polygon points="144,90 150,74 156,90" fill="#FF4D5A"/>
<rect x="160" y="64" width="32" height="32" fill="#0A0F1F" stroke="#203058" stroke-width="1"/>
<rect x="160" y="84" width="32" height="12" fill="#FF4D5A"/>
<path d="M 160 84 Q 164 78 168 84 T 176 84 T 184 84 T 192 84" stroke="#FFD84D" stroke-width="2" fill="none"/>
<rect x="192" y="64" width="32" height="32" fill="#0A0F1F" stroke="#203058" stroke-width="1"/>
<rect x="196" y="72" width="24" height="16" fill="#FF4D5A"/>
<line x1="200" y1="74" x2="216" y2="86" stroke="#0A0F1F" stroke-width="2"/>
<rect x="224" y="64" width="32" height="32" fill="#0A0F1F" stroke="#203058" stroke-width="1"/>
<rect x="232" y="74" width="16" height="12" fill="#111A33" stroke="#00F5FF" stroke-width="2"/>
<rect x="236" y="78" width="8" height="4" fill="#00F5FF"/>
<rect x="0" y="96" width="32" height="32" fill="#0A0F1F" stroke="#203058" stroke-width="1"/>
<circle cx="16" cy="112" r="8" fill="#00F5FF"/>
<circle cx="16" cy="112" r="3" fill="#FF4FD8"/>
<rect x="32" y="96" width="32" height="32" fill="#0A0F1F" stroke="#203058" stroke-width="1"/>
<rect x="45" y="104" width="6" height="16" fill="#FF4D5A"/>
<rect x="40" y="109" width="16" height="6" fill="#FF4D5A"/>
<rect x="64" y="96" width="32" height="32" fill="#0A0F1F" stroke="#203058" stroke-width="1"/>
<circle cx="74" cy="112" r="4" fill="#FFD84D"/>
<rect x="78" y="111" width="12" height="2" fill="#FFD84D"/>
<rect x="86" y="109" width="2" height="6" fill="#FFD84D"/>
<rect x="96" y="96" width="32" height="32" fill="#0A0F1F" stroke="#203058" stroke-width="1"/>
<circle cx="112" cy="112" r="9" fill="#44FF88"/>
<line x1="112" y1="104" x2="112" y2="120" stroke="#0A0F1F" stroke-width="2"/>
<line x1="104" y1="112" x2="120" y2="112" stroke="#0A0F1F" stroke-width="2"/>
<rect x="128" y="96" width="32" height="32" fill="#0A0F1F" stroke="#203058" stroke-width="1"/>
<circle cx="144" cy="112" r="10" fill="none" stroke="#00F5FF" stroke-width="2"/>
<circle cx="144" cy="112" r="5" fill="none" stroke="#00F5FF" stroke-width="2"/>
<rect x="160" y="96" width="32" height="32" fill="#0A0F1F" stroke="#203058" stroke-width="1"/>
<circle cx="176" cy="112" r="10" fill="none" stroke="#FF4FD8" stroke-width="2"/>
<circle cx="176" cy="112" r="5" fill="none" stroke="#FF4FD8" stroke-width="2"/>
<rect x="192" y="96" width="32" height="32" fill="#0A0F1F" stroke="#203058" stroke-width="1"/>
<line x1="202" y1="122" x2="202" y2="102" stroke="#00F5FF" stroke-width="2"/>
<polygon points="202,104 216,108 202,112" fill="#FF4FD8"/>
<rect x="224" y="96" width="32" height="32" fill="#0A0F1F" stroke="#203058" stroke-width="1"/>
<rect x="232" y="102" width="16" height="20" fill="none" stroke="#00F5FF" stroke-width="2"/>
<circle cx="240" cy="112" r="3" fill="#FF4FD8"/>
<rect x="0" y="128" width="32" height="32" fill="#0A0F1F" stroke="#203058" stroke-width="1"/>
<line x1="6" y1="144" x2="26" y2="144" stroke="#FFD84D" stroke-width="2"/>
<line x1="26" y1="144" x2="20" y2="138" stroke="#FFD84D" stroke-width="2"/>
<line x1="26" y1="144" x2="20" y2="150" stroke="#FFD84D" stroke-width="2"/>
<rect x="32" y="128" width="32" height="32" fill="#0A0F1F" stroke="#203058" stroke-width="1"/>
<rect x="38" y="136" width="20" height="14" fill="none" stroke="#44FF88" stroke-width="2"/>
<line x1="42" y1="142" x2="54" y2="142" stroke="#44FF88" stroke-width="1"/>
<line x1="42" y1="146" x2="50" y2="146" stroke="#44FF88" stroke-width="1"/>
<rect x="64" y="128" width="32" height="32" fill="#0A0F1F" stroke="#203058" stroke-width="1"/>
<rect x="72" y="134" width="16" height="20" fill="none" stroke="#45A3FF" stroke-width="2"/>
<line x1="74" y1="138" x2="86" y2="138" stroke="#45A3FF" stroke-width="1"/>
<line x1="74" y1="142" x2="86" y2="142" stroke="#45A3FF" stroke-width="1"/>
<line x1="74" y1="146" x2="86" y2="146" stroke="#45A3FF" stroke-width="1"/>
<line x1="74" y1="150" x2="86" y2="150" stroke="#45A3FF" stroke-width="1"/>
<rect x="96" y="128" width="32" height="32" fill="#0A0F1F" stroke="#203058" stroke-width="1"/>
<ellipse cx="112" cy="144" rx="10" ry="6" fill="none" stroke="#FF4FD8" stroke-width="2"/>
<circle cx="112" cy="144" r="3" fill="#FF4FD8"/>
<rect x="128" y="128" width="32" height="32" fill="#0A0F1F" stroke="#203058" stroke-width="1"/>
<rect x="134" y="136" width="5" height="5" fill="#00F5FF"/>
<rect x="139" y="136" width="5" height="5" fill="#FF4FD8"/>
<rect x="144" y="136" width="5" height="5" fill="#44FF88"/>
<rect x="149" y="136" width="5" height="5" fill="#FFD84D"/>
<rect x="160" y="128" width="32" height="32" fill="#0A0F1F" stroke="#203058" stroke-width="1"/>
<rect x="166" y="136" width="5" height="5" fill="#00F5FF"/>
<rect x="171" y="136" width="5" height="5" fill="#FF4FD8"/>
<rect x="176" y="136" width="5" height="5" fill="#44FF88"/>
<rect x="171" y="141" width="5" height="5" fill="#44FF88"/>
<rect x="192" y="128" width="32" height="32" fill="#0A0F1F" stroke="#203058" stroke-width="1"/>
<rect x="198" y="136" width="5" height="5" fill="#00F5FF"/>
<rect x="198" y="141" width="5" height="5" fill="#FF4FD8"/>
<rect x="198" y="146" width="5" height="5" fill="#44FF88"/>
<rect x="203" y="146" width="5" height="5" fill="#FFD84D"/>
<rect x="224" y="128" width="32" height="32" fill="#0A0F1F" stroke="#203058" stroke-width="1"/>
<rect x="230" y="136" width="5" height="5" fill="#00F5FF"/>
<rect x="235" y="136" width="5" height="5" fill="#FF4FD8"/>
<rect x="235" y="141" width="5" height="5" fill="#44FF88"/>
<rect x="240" y="141" width="5" height="5" fill="#FFD84D"/>
<rect x="0" y="160" width="32" height="32" fill="#0A0F1F" stroke="#203058" stroke-width="1"/>
<rect x="4" y="164" width="24" height="24" fill="none" stroke="#203058" stroke-width="2"/>
<rect x="32" y="160" width="32" height="32" fill="#0A0F1F" stroke="#203058" stroke-width="1"/>
<line x1="48" y1="162" x2="48" y2="190" stroke="#00F5FF" stroke-width="3"/>
<rect x="64" y="160" width="32" height="32" fill="#0A0F1F" stroke="#203058" stroke-width="1"/>
<circle cx="80" cy="176" r="8" fill="none" stroke="#00F5FF" stroke-width="2"/>
<circle cx="80" cy="176" r="3" fill="#FF4FD8"/>
<rect x="96" y="160" width="32" height="32" fill="#0A0F1F" stroke="#203058" stroke-width="1"/>
<line x1="100" y1="176" x2="124" y2="176" stroke="#FF4FD8" stroke-width="2"/>
<rect x="128" y="160" width="32" height="32" fill="#0A0F1F" stroke="#203058" stroke-width="1"/>
<circle cx="144" cy="176" r="10" fill="#44FF88"/>
<circle cx="140" cy="174" r="2" fill="#fff"/>
<circle cx="148" cy="174" r="2" fill="#fff"/>
<rect x="139" y="180" width="10" height="2" fill="#0A0F1F"/>
<rect x="160" y="160" width="32" height="32" fill="#0A0F1F" stroke="#203058" stroke-width="1"/>
<circle cx="176" cy="176" r="10" fill="#45A3FF"/>
<circle cx="172" cy="174" r="2" fill="#fff"/>
<circle cx="180" cy="174" r="2" fill="#fff"/>
<rect x="171" y="180" width="10" height="2" fill="#0A0F1F"/>
<rect x="192" y="160" width="32" height="32" fill="#0A0F1F" stroke="#203058" stroke-width="1"/>
<circle cx="208" cy="176" r="10" fill="#FF4D5A"/>
<circle cx="204" cy="174" r="2" fill="#fff"/>
<circle cx="212" cy="174" r="2" fill="#fff"/>
<rect x="203" y="180" width="10" height="2" fill="#0A0F1F"/>
<rect x="224" y="160" width="32" height="32" fill="#0A0F1F" stroke="#203058" stroke-width="1"/>
<circle cx="240" cy="176" r="10" fill="#8A5CFF"/>
<circle cx="240" cy="172" r="4" fill="#00F5FF"/>
<rect x="236" y="178" width="8" height="6" fill="#00F5FF"/>
<rect x="0" y="192" width="32" height="32" fill="#0A0F1F" stroke="#203058" stroke-width="1"/>
<circle cx="16" cy="208" r="10" fill="#FF4D5A"/>
<circle cx="12" cy="206" r="2" fill="#fff"/>
<circle cx="20" cy="206" r="2" fill="#fff"/>
<rect x="32" y="192" width="32" height="32" fill="#0A0F1F" stroke="#203058" stroke-width="1"/>
<line x1="36" y1="208" x2="60" y2="208" stroke="#00F5FF" stroke-width="3"/>
<rect x="32" y="206" width="32" height="4" fill="#ffffff22"/>
<rect x="64" y="192" width="32" height="32" fill="#0A0F1F" stroke="#203058" stroke-width="1"/>
<line x1="80" y1="218" x2="80" y2="198" stroke="#FFD84D" stroke-width="2"/>
<line x1="80" y1="198" x2="75" y2="203" stroke="#FFD84D" stroke-width="2"/>
<line x1="80" y1="198" x2="85" y2="203" stroke="#FFD84D" stroke-width="2"/>
<line x1="80" y1="218" x2="75" y2="213" stroke="#FFD84D" stroke-width="2"/>
<line x1="80" y1="218" x2="85" y2="213" stroke="#FFD84D" stroke-width="2"/>
<rect x="96" y="192" width="32" height="32" fill="#0A0F1F" stroke="#203058" stroke-width="1"/>
<circle cx="112" cy="208" r="9" fill="none" stroke="#FF4D5A" stroke-width="2"/>
<rect x="104" y="202" width="4" height="12" fill="#FF4D5A"/>
<rect x="116" y="202" width="4" height="12" fill="#FF4D5A"/>
<rect x="128" y="192" width="32" height="32" fill="#0A0F1F" stroke="#203058" stroke-width="1"/>
<rect x="134" y="200" width="20" height="16" fill="none" stroke="#FF4D5A" stroke-width="2"/>
<line x1="136" y1="204" x2="152" y2="204" stroke="#FF4D5A" stroke-width="1"/>
<line x1="136" y1="208" x2="152" y2="208" stroke="#FF4D5A" stroke-width="1"/>
<line x1="136" y1="212" x2="152" y2="212" stroke="#FF4D5A" stroke-width="1"/>
<rect x="160" y="192" width="32" height="32" fill="#0A0F1F" stroke="#203058" stroke-width="1"/>
<circle cx="176" cy="208" r="9" fill="#8A5CFF"/>
<rect x="170" y="202" width="12" height="8" fill="#ffffff22"/>
<circle cx="172" cy="208" r="1.5" fill="#fff"/>
<circle cx="180" cy="208" r="1.5" fill="#fff"/>
<rect x="192" y="192" width="32" height="32" fill="#0A0F1F" stroke="#203058" stroke-width="1"/>
<rect x="200" y="200" width="10" height="10" fill="#00F5FF"/>
<rect x="206" y="206" width="10" height="10" fill="#FF4FD8"/>
<rect x="224" y="192" width="32" height="32" fill="#0A0F1F" stroke="#203058" stroke-width="1"/>
<line x1="232" y1="200" x2="232" y2="216" stroke="#00F5FF" stroke-width="2"/>
<line x1="248" y1="200" x2="248" y2="216" stroke="#00F5FF" stroke-width="2"/>
<line x1="232" y1="208" x2="238" y2="208" stroke="#00F5FF" stroke-width="2"/>
<line x1="248" y1="208" x2="242" y2="208" stroke="#00F5FF" stroke-width="2"/>
<rect x="0" y="224" width="32" height="32" fill="#0A0F1F" stroke="#203058" stroke-width="1"/>
<circle cx="16" cy="240" r="5" fill="none" stroke="#00F5FF" stroke-width="2"/>
<circle cx="16" cy="240" r="10" fill="none" stroke="#FF4FD8" stroke-width="2"/>
<rect x="32" y="224" width="32" height="32" fill="#0A0F1F" stroke="#203058" stroke-width="1"/>
<path d="M 48 230 L 44 240 L 50 240 L 46 250 L 54 238 L 48 238 Z" fill="#FF4D5A"/>
<rect x="64" y="224" width="32" height="32" fill="#0A0F1F" stroke="#203058" stroke-width="1"/>
<circle cx="80" cy="240" r="8" fill="#45A3FF"/>
<line x1="72" y1="240" x2="88" y2="240" stroke="#fff" stroke-width="1"/>
<rect x="96" y="224" width="32" height="32" fill="#0A0F1F" stroke="#203058" stroke-width="1"/>
<rect x="102" y="232" width="6" height="6" fill="#00F5FF"/>
<rect x="114" y="234" width="6" height="6" fill="#FF4FD8"/>
<rect x="108" y="244" width="6" height="6" fill="#44FF88"/>
<rect x="128" y="224" width="32" height="32" fill="#0A0F1F" stroke="#203058" stroke-width="1"/>
<rect x="134" y="232" width="20" height="16" fill="#FF4D5A"/>
<line x1="136" y1="234" x2="152" y2="246" stroke="#0A0F1F" stroke-width="2"/>
<rect x="160" y="224" width="32" height="32" fill="#0A0F1F" stroke="#203058" stroke-width="1"/>
<line x1="166" y1="234" x2="186" y2="234" stroke="#44FF88" stroke-width="2"/>
<line x1="166" y1="240" x2="186" y2="240" stroke="#44FF88" stroke-width="2"/>
<line x1="166" y1="246" x2="186" y2="246" stroke="#44FF88" stroke-width="2"/>
<rect x="192" y="224" width="32" height="32" fill="#0A0F1F" stroke="#203058" stroke-width="1"/>
<circle cx="208" cy="240" r="7" fill="#44FF88"/>
<line x1="208" y1="230" x2="208" y2="250" stroke="#0A0F1F" stroke-width="2"/>
<line x1="198" y1="240" x2="218" y2="240" stroke="#0A0F1F" stroke-width="2"/>
<rect x="224" y="224" width="32" height="32" fill="#0A0F1F" stroke="#203058" stroke-width="1"/>
</svg>