<svg xmlns="http://www.w3.org/2000/svg" viewBox="0 0 128 112" width="128" height="112" shape-rendering="crispEdges">
<polygon points="24,48 38,40 52,48 38,90" fill="#2F6D45"/>
<polygon points="24,48 38,40 38,90" fill="#204730"/>
<polygon points="38,40 52,48 38,90" fill="#4A9A62"/>
<polygon points="76,48 90,40 104,48 90,90" fill="#2F6D45"/>
<polygon points="76,48 90,40 90,90" fill="#204730"/>
<polygon points="90,40 104,48 90,90" fill="#4A9A62"/>
<polygon points="38,40 64,24 90,40 64,56" fill="#9FFFCA"/>
<polygon points="38,40 38,50 64,66 64,56" fill="#37624A"/>
<polygon points="90,40 90,50 64,66 64,56" fill="#56A173"/>
<rect x="58" y="44" width="12" height="8" fill="#00F5FF"/>
<rect x="34" y="58" width="8" height="2" fill="#B7FFD9"/>
<rect x="86" y="58" width="8" height="2" fill="#B7FFD9"/>
<rect x="34" y="72" width="8" height="2" fill="#B7FFD9"/>
<rect x="86" y="72" width="8" height="2" fill="#B7FFD9"/>
<rect x="56" y="60" width="16" height="6" fill="#001B2E"/>
<rect x="58" y="62" width="12" height="2" fill="#7DF9FF"/>
</svg>
