<svg xmlns="http://www.w3.org/2000/svg" viewBox="0 0 96 120" width="96" height="120" shape-rendering="crispEdges">
<polygon points="42,12 48,4 54,12 48,72" fill="#6B4A2B"/>
<polygon points="42,12 48,4 48,72" fill="#3F2B18"/>
<polygon points="48,4 54,12 48,72" fill="#8A6038"/>
<polygon points="26,74 40,64 48,74 34,84" fill="#2F6D45"/>
<polygon points="48,74 56,64 70,74 62,84" fill="#2F6D45"/>
<polygon points="16,92 34,78 48,92 30,106" fill="#7CFFB2"/>
<polygon points="48,92 62,78 80,92 66,106" fill="#7CFFB2"/>
<polygon points="38,86 48,78 58,86 48,98" fill="#FF4D5A"/>
</svg>
