<svg xmlns="http://www.w3.org/2000/svg" viewBox="0 0 160 96" width="160" height="96" shape-rendering="crispEdges">
<polygon points="20,32 30,26 40,32 30,82" fill="#7DF9FF"/>
<polygon points="20,32 30,26 30,82" fill="#234A69"/>
<polygon points="40,32 40,82 30,82 30,32" fill="#45A3FF"/>
<polygon points="60,24 72,18 84,24 72,82" fill="#FFD84D"/>
<polygon points="60,24 72,18 72,82" fill="#8A5E00"/>
<polygon points="84,24 84,82 72,82 72,24" fill="#FF9F1C"/>
<polygon points="104,36 114,30 124,36 114,82" fill="#FF7AE6"/>
<polygon points="104,36 114,30 114,82" fill="#772E62"/>
<polygon points="124,36 124,82 114,82 114,36" fill="#FF4DDA"/>
</svg>
