<svg xmlns="http://www.w3.org/2000/svg" viewBox="0 0 112 112" width="112" height="112" shape-rendering="crispEdges">
<polygon points="44,18 56,10 68,18 56,60" fill="#D9E0E8"/>
<polygon points="44,18 56,10 56,60" fill="#6C727A"/>
<polygon points="68,18 68,60 56,60 56,18" fill="#AEB6BF"/>
<polygon points="34,64 56,52 78,64 56,78" fill="#F6C56F"/>
<polygon points="34,64 34,74 56,88 56,78" fill="#8C6231"/>
<polygon points="78,64 78,74 56,88 56,78" fill="#D59645"/>
<rect x="50" y="26" width="12" height="10" fill="#001B2E"/>
<rect x="52" y="29" width="8" height="4" fill="#00F5FF"/>
<rect x="52" y="40" width="8" height="8" fill="#FF4D5A"/>
</svg>
