<svg xmlns="http://www.w3.org/2000/svg" viewBox="0 0 96 112" width="96" height="112" shape-rendering="crispEdges">
<polygon points="48,4 66,14 66,34 48,44 30,34 30,14" fill="#7DF9FF"/>
<polygon points="30,14 30,34 48,44 48,24" fill="#1F4E73"/>
<polygon points="66,14 66,34 48,44 48,24" fill="#45A3FF"/>
<polygon points="44,44 52,44 60,88 48,96 36,88" fill="#FFD84D"/>
<polygon points="44,44 36,88 48,96 48,44" fill="#8A5E00"/>
<polygon points="52,44 60,88 48,96 48,44" fill="#FF9F1C"/>
<polygon points="24,96 48,84 72,96 48,108" fill="#1A2F4D"/>
<rect x="42" y="18" width="12" height="8" fill="#001B2E"/>
<rect x="44" y="20" width="8" height="4" fill="#FF4D5A"/>
</svg>
