<svg xmlns="http://www.w3.org/2000/svg" viewBox="0 0 64 64" width="64" height="64" shape-rendering="crispEdges">
<rect x="24" y="14" width="10" height="10" fill="#111A33"/>
<rect x="24" y="24" width="10" height="10" fill="#111A33"/>
<rect x="24" y="34" width="10" height="10" fill="#111A33"/>
<rect x="14" y="34" width="10" height="10" fill="#111A33"/>
<rect x="22" y="12" width="10" height="10" fill="#FF4FD8"/>
<rect x="22" y="12" width="10" height="2" fill="#ffffff22"/>
<path d="M 24 14 L 28 17 L 26 20" stroke="#0A0F1F" stroke-width="1" fill="none"/>
<rect x="22" y="22" width="10" height="10" fill="#FF4FD8"/>
<rect x="22" y="22" width="10" height="2" fill="#ffffff22"/>
<path d="M 24 24 L 28 27 L 26 30" stroke="#0A0F1F" stroke-width="1" fill="none"/>
<rect x="22" y="32" width="10" height="10" fill="#FF4FD8"/>
<rect x="22" y="32" width="10" height="2" fill="#ffffff22"/>
<path d="M 24 34 L 28 37 L 26 40" stroke="#0A0F1F" stroke-width="1" fill="none"/>
<rect x="12" y="32" width="10" height="10" fill="#FF4FD8"/>
<rect x="12" y="32" width="10" height="2" fill="#ffffff22"/>
<path d="M 14 34 L 18 37 L 16 40" stroke="#0A0F1F" stroke-width="1" fill="none"/>
</svg>
