<svg xmlns="http://www.w3.org/2000/svg" viewBox="0 0 64 64" width="64" height="64" shape-rendering="crispEdges">
<rect x="18" y="6" width="2" height="6" fill="#8A5CFF"/><rect x="18" y="52" width="2" height="6" fill="#8A5CFF"/><rect x="26" y="6" width="2" height="6" fill="#8A5CFF"/><rect x="26" y="52" width="2" height="6" fill="#8A5CFF"/><rect x="34" y="6" width="2" height="6" fill="#8A5CFF"/><rect x="34" y="52" width="2" height="6" fill="#8A5CFF"/><rect x="42" y="6" width="2" height="6" fill="#8A5CFF"/><rect x="42" y="52" width="2" height="6" fill="#8A5CFF"/><rect x="6" y="18" width="6" height="2" fill="#8A5CFF"/><rect x="52" y="18" width="6" height="2" fill="#8A5CFF"/><rect x="6" y="26" width="6" height="2" fill="#8A5CFF"/><rect x="52" y="26" width="6" height="2" fill="#8A5CFF"/><rect x="6" y="34" width="6" height="2" fill="#8A5CFF"/><rect x="52" y="34" width="6" height="2" fill="#8A5CFF"/><rect x="6" y="42" width="6" height="2" fill="#8A5CFF"/><rect x="52" y="42" width="6" height="2" fill="#8A5CFF"/><rect x="16" y="16" width="32" height="32" fill="none" stroke="#FF4D5A" stroke-width="2"/>
</svg>
