<svg xmlns="http://www.w3.org/2000/svg" viewBox="0 0 128 112" width="128" height="112" shape-rendering="crispEdges">
<polygon points="30,68 64,50 98,68 64,86" fill="#FF7AE6"/>
<polygon points="30,68 30,80 64,98 64,86" fill="#772E62"/>
<polygon points="98,68 98,80 64,98 64,86" fill="#FF4DDA"/>
<polygon points="46,46 64,34 82,46 64,58" fill="#7DF9FF"/>
<polygon points="46,46 46,60 64,72 64,58" fill="#234A69"/>
<polygon points="82,46 82,60 64,72 64,58" fill="#45A3FF"/>
<polygon points="56,18 64,10 72,18 64,30" fill="#FFF1A8"/>
<rect x="54" y="68" width="20" height="8" fill="#001B2E"/>
</svg>
