<svg xmlns="http://www.w3.org/2000/svg" viewBox="0 0 128 112" width="128" height="112" shape-rendering="crispEdges">
<polygon points="18,42 30,34 42,42 30,90" fill="#7DF9FF"/>
<polygon points="18,42 30,34 30,90" fill="#244F72"/>
<polygon points="42,42 42,90 30,90 30,42" fill="#45A3FF"/>
<polygon points="46,24 62,14 78,24 62,94" fill="#FFD84D"/>
<polygon points="46,24 62,14 62,94" fill="#8A5E00"/>
<polygon points="78,24 78,94 62,94 62,24" fill="#FF9F1C"/>
<polygon points="84,34 98,26 112,34 98,86" fill="#FF7AE6"/>
<polygon points="84,34 98,26 98,86" fill="#772E62"/>
<polygon points="112,34 112,86 98,86 98,34" fill="#FF4DDA"/>
<rect x="26" y="52" width="8" height="4" fill="#001B2E"/>
<rect x="28" y="53" width="4" height="2" fill="#7DF9FF"/>
<rect x="56" y="40" width="12" height="4" fill="#001B2E"/>
<rect x="58" y="41" width="8" height="2" fill="#FFD84D"/>
<rect x="56" y="58" width="12" height="4" fill="#001B2E"/>
<rect x="58" y="59" width="8" height="2" fill="#FFD84D"/>
<rect x="92" y="50" width="12" height="4" fill="#001B2E"/>
<rect x="94" y="51" width="8" height="2" fill="#FFB0F2"/>
</svg>
