<svg xmlns="http://www.w3.org/2000/svg" viewBox="0 0 128 96" width="128" height="96" shape-rendering="crispEdges">
<polygon points="28,86 64,66 100,86 64,94" fill="#10243A"/>
<polygon points="20,20 32,12 44,20 32,28" fill="#7DF9FF"/>
<polygon points="20,20 20,78 32,86 32,28" fill="#214E78"/>
<polygon points="44,20 44,78 32,86 32,28" fill="#45A3FF"/>
<polygon points="84,20 96,12 108,20 96,28" fill="#FFD84D"/>
<polygon points="84,20 84,78 96,86 96,28" fill="#8D5E00"/>
<polygon points="108,20 108,78 96,86 96,28" fill="#FF9F1C"/>
<polygon points="32,20 64,2 96,20 64,38" fill="#FF7AE6"/>
<polygon points="32,20 32,30 64,48 64,38" fill="#7A2F62"/>
<polygon points="96,20 96,30 64,48 64,38" fill="#FF4DDA"/>
<rect x="54" y="32" width="20" height="8" fill="#001B2E"/>
<rect x="56" y="34" width="16" height="4" fill="#00F5FF"/>
<rect x="28" y="46" width="8" height="2" fill="#9EEFFF"/>
<rect x="92" y="46" width="8" height="2" fill="#FFF1A8"/>
<rect x="28" y="62" width="8" height="2" fill="#9EEFFF"/>
<rect x="92" y="62" width="8" height="2" fill="#FFF1A8"/>
</svg>
