<svg xmlns="http://www.w3.org/2000/svg" viewBox="0 0 160 96" width="160" height="96" shape-rendering="crispEdges">
<polygon points="18,26 80,6 142,26 80,46" fill="#7DF9FF"/>
<polygon points="18,26 18,72 80,92 80,46" fill="#234A69"/>
<polygon points="142,26 142,72 80,92 80,46" fill="#45A3FF"/>
<rect x="48" y="34" width="64" height="18" fill="#001B2E"/>
<rect x="52" y="38" width="24" height="4" fill="#00F5FF"/>
<rect x="84" y="38" width="24" height="4" fill="#FF4D5A"/>
<rect x="52" y="46" width="56" height="2" fill="#FFD84D"/>
<rect x="36" y="42" width="8" height="4" fill="#001B2E"/>
<rect x="116" y="42" width="8" height="4" fill="#001B2E"/>
<rect x="38" y="43" width="4" height="2" fill="#9EEFFF"/>
<rect x="118" y="43" width="4" height="2" fill="#9EEFFF"/>
<rect x="62" y="58" width="36" height="4" fill="#10243A"/>
</svg>
