<svg xmlns="http://www.w3.org/2000/svg" viewBox="0 0 160 96" width="160" height="96" shape-rendering="crispEdges">
<polygon points="18,58 80,30 142,58 80,86" fill="#7DF9FF"/>
<polygon points="18,58 18,68 80,96 80,86" fill="#28506F"/>
<polygon points="142,58 142,68 80,96 80,86" fill="#45A3FF"/>
<polygon points="28,50 38,44 48,50 38,56" fill="#FFD84D"/>
<polygon points="56,38 66,32 76,38 66,44" fill="#FFD84D"/>
<polygon points="84,38 94,32 104,38 94,44" fill="#FFD84D"/>
<polygon points="112,50 122,44 132,50 122,56" fill="#FFD84D"/>
<polygon points="30,68 38,64 46,68 38,92" fill="#5E3A1D"/>
<polygon points="114,68 122,64 130,68 122,92" fill="#5E3A1D"/>
</svg>
