<svg xmlns="http://www.w3.org/2000/svg" viewBox="0 0 112 112" width="112" height="112" shape-rendering="crispEdges">
<polygon points="50,42 56,34 62,42 56,86" fill="#45A3FF"/>
<polygon points="50,42 56,34 56,86" fill="#274C75"/>
<polygon points="56,34 62,42 56,86" fill="#7DF9FF"/>
<polygon points="30,38 44,28 56,38 42,48" fill="#B56CFF"/>
<polygon points="56,38 68,28 82,38 70,48" fill="#B56CFF"/>
<polygon points="20,56 38,44 52,56 34,68" fill="#FF7AE6"/>
<polygon points="60,56 74,44 92,56 78,68" fill="#FF7AE6"/>
<polygon points="42,92 56,84 70,92 56,106" fill="#FFD84D"/>
</svg>
