<svg xmlns="http://www.w3.org/2000/svg" viewBox="0 0 96 80" width="96" height="80" shape-rendering="crispEdges">
<polygon points="26,18 40,10 54,18 40,26" fill="#7DF9FF"/>
<polygon points="26,18 26,38 40,46 40,26" fill="#2A6B9E"/>
<polygon points="54,18 54,38 40,46 40,26" fill="#45A3FF"/>
<polygon points="50,30 64,22 78,30 64,38" fill="#FFD84D"/>
<polygon points="50,30 50,50 64,58 64,38" fill="#A35B00"/>
<polygon points="78,30 78,50 64,58 64,38" fill="#FF9F1C"/>
<polygon points="14,38 28,30 42,38 28,46" fill="#FF7AE6"/>
<polygon points="14,38 14,58 28,66 28,46" fill="#8B2F71"/>
<polygon points="42,38 42,58 28,66 28,46" fill="#FF4DDA"/>
</svg>
