<svg xmlns="http://www.w3.org/2000/svg" viewBox="0 0 128 96" width="128" height="96" shape-rendering="crispEdges">
<polygon points="34,70 64,54 94,70 64,86" fill="#10243A"/>
<polygon points="34,60 64,44 94,60 64,76" fill="#7DF9FF"/>
<polygon points="34,60 34,70 64,86 64,76" fill="#1F4E73"/>
<polygon points="94,60 94,70 64,86 64,76" fill="#45A3FF"/>
<polygon points="50,38 64,30 78,38 64,46" fill="#FFD84D"/>
<polygon points="50,38 50,52 64,60 64,46" fill="#8A5E00"/>
<polygon points="78,38 78,52 64,60 64,46" fill="#FF9F1C"/>
<polygon points="56,20 64,14 72,20 64,26" fill="#FF7AE6"/>
<polygon points="56,20 56,34 64,40 64,26" fill="#772E62"/>
<polygon points="72,20 72,34 64,40 64,26" fill="#FF4DDA"/>
<rect x="60" y="18" width="8" height="8" fill="#FFF1A8"/>
<rect x="58" y="48" width="12" height="4" fill="#001B2E"/>
<rect x="60" y="49" width="8" height="2" fill="#7DF9FF"/>
<rect x="44" y="62" width="8" height="2" fill="#9EEFFF"/>
<rect x="76" y="62" width="8" height="2" fill="#9EEFFF"/>
<rect x="48" y="66" width="8" height="2" fill="#FFD84D"/>
<rect x="72" y="66" width="8" height="2" fill="#FFD84D"/>
</svg>
