<svg xmlns="http://www.w3.org/2000/svg" viewBox="0 0 144 112" width="144" height="112" shape-rendering="crispEdges">
<polygon points="24,54 38,46 52,54 38,94" fill="#C7D2E2"/>
<polygon points="24,54 38,46 38,94" fill="#5C6674"/>
<polygon points="52,54 52,94 38,94 38,54" fill="#909CAF"/>
<polygon points="92,54 106,46 120,54 106,94" fill="#C7D2E2"/>
<polygon points="92,54 106,46 106,94" fill="#5C6674"/>
<polygon points="120,54 120,94 106,94 106,54" fill="#909CAF"/>
<polygon points="38,54 72,30 106,54 72,78" fill="#7DF9FF"/>
<polygon points="38,54 38,64 72,88 72,78" fill="#234A69"/>
<polygon points="106,54 106,64 72,88 72,78" fill="#45A3FF"/>
<rect x="64" y="50" width="16" height="8" fill="#001B2E"/>
</svg>
