<?xml version="1.0" encoding="UTF-8"?>
<svg xmlns="http://www.w3.org/2000/svg" width="1800" height="720" viewBox="0 0 1800 720">

  <defs>
    <filter id="shadow" x="-30%" y="-30%" width="160%" height="160%">
      <feDropShadow dx="10" dy="12" stdDeviation="8" flood-color="#000" flood-opacity="0.45"/>
    </filter>
    <filter id="softshadow" x="-30%" y="-30%" width="160%" height="160%">
      <feDropShadow dx="6" dy="8" stdDeviation="6" flood-color="#000" flood-opacity="0.35"/>
    </filter>

    <filter id="glow-cyan" x="-50%" y="-50%" width="200%" height="200%">
      <feGaussianBlur stdDeviation="4.5" result="blur"/>
      <feFlood flood-color="#29b6f6" flood-opacity="0.9" result="color"/>
      <feComposite in="color" in2="blur" operator="in" result="glow"/>
      <feMerge>
        <feMergeNode in="glow"/>
        <feMergeNode in="SourceGraphic"/>
      </feMerge>
    </filter>

    <filter id="glow-yellow" x="-50%" y="-50%" width="200%" height="200%">
      <feGaussianBlur stdDeviation="4.5" result="blur"/>
      <feFlood flood-color="#ffd54f" flood-opacity="0.9" result="color"/>
      <feComposite in="color" in2="blur" operator="in" result="glow"/>
      <feMerge>
        <feMergeNode in="glow"/>
        <feMergeNode in="SourceGraphic"/>
      </feMerge>
    </filter>

    <filter id="glow-purple" x="-50%" y="-50%" width="200%" height="200%">
      <feGaussianBlur stdDeviation="4.5" result="blur"/>
      <feFlood flood-color="#ab47bc" flood-opacity="0.9" result="color"/>
      <feComposite in="color" in2="blur" operator="in" result="glow"/>
      <feMerge>
        <feMergeNode in="glow"/>
        <feMergeNode in="SourceGraphic"/>
      </feMerge>
    </filter>

    <filter id="glow-green" x="-50%" y="-50%" width="200%" height="200%">
      <feGaussianBlur stdDeviation="4.5" result="blur"/>
      <feFlood flood-color="#66bb6a" flood-opacity="0.9" result="color"/>
      <feComposite in="color" in2="blur" operator="in" result="glow"/>
      <feMerge>
        <feMergeNode in="glow"/>
        <feMergeNode in="SourceGraphic"/>
      </feMerge>
    </filter>

    <filter id="glow-pink" x="-50%" y="-50%" width="200%" height="200%">
      <feGaussianBlur stdDeviation="4.5" result="blur"/>
      <feFlood flood-color="#ec407a" flood-opacity="0.9" result="color"/>
      <feComposite in="color" in2="blur" operator="in" result="glow"/>
      <feMerge>
        <feMergeNode in="glow"/>
        <feMergeNode in="SourceGraphic"/>
      </feMerge>
    </filter>
  </defs>


  <style>
    .front { stroke: rgba(0,0,0,0.55); stroke-width: 2.5; }
    .edge  { stroke: rgba(0,0,0,0.35); stroke-width: 2; }
    .highlight { stroke: rgba(255,255,255,0.25); stroke-width: 1.4; fill: none; }
  </style>

<g filter="url(#softshadow)">
<g filter="url(#glow-cyan)">
<polygon class="edge" points="481,90 493,102 493,136 481,124" fill="#0b5bd3"/>
<polygon class="edge" points="447,124 459,136 493,136 481,124" fill="#0747a6"/>
<rect class="front" x="447" y="90" width="34" height="34" rx="7" ry="7" fill="#29b6f6"/>
<rect class="highlight" x="449" y="92" width="30" height="30" rx="4" ry="4"/>
<polygon class="edge" points="521,90 533,102 533,136 521,124" fill="#0b5bd3"/>
<polygon class="edge" points="487,124 499,136 533,136 521,124" fill="#0747a6"/>
<rect class="front" x="487" y="90" width="34" height="34" rx="7" ry="7" fill="#29b6f6"/>
<rect class="highlight" x="489" y="92" width="30" height="30" rx="4" ry="4"/>
<polygon class="edge" points="561,90 573,102 573,136 561,124" fill="#0b5bd3"/>
<polygon class="edge" points="527,124 539,136 573,136 561,124" fill="#0747a6"/>
<rect class="front" x="527" y="90" width="34" height="34" rx="7" ry="7" fill="#29b6f6"/>
<rect class="highlight" x="529" y="92" width="30" height="30" rx="4" ry="4"/>
<polygon class="edge" points="601,90 613,102 613,136 601,124" fill="#0b5bd3"/>
<polygon class="edge" points="567,124 579,136 613,136 601,124" fill="#0747a6"/>
<rect class="front" x="567" y="90" width="34" height="34" rx="7" ry="7" fill="#29b6f6"/>
<rect class="highlight" x="569" y="92" width="30" height="30" rx="4" ry="4"/>
<polygon class="edge" points="561,130 573,142 573,176 561,164" fill="#0b5bd3"/>
<polygon class="edge" points="527,164 539,176 573,176 561,164" fill="#0747a6"/>
<rect class="front" x="527" y="130" width="34" height="34" rx="7" ry="7" fill="#29b6f6"/>
<rect class="highlight" x="529" y="132" width="30" height="30" rx="4" ry="4"/>
<polygon class="edge" points="561,170 573,182 573,216 561,204" fill="#0b5bd3"/>
<polygon class="edge" points="527,204 539,216 573,216 561,204" fill="#0747a6"/>
<rect class="front" x="527" y="170" width="34" height="34" rx="7" ry="7" fill="#29b6f6"/>
<rect class="highlight" x="529" y="172" width="30" height="30" rx="4" ry="4"/>
<polygon class="edge" points="561,210 573,222 573,256 561,244" fill="#0b5bd3"/>
<polygon class="edge" points="527,244 539,256 573,256 561,244" fill="#0747a6"/>
<rect class="front" x="527" y="210" width="34" height="34" rx="7" ry="7" fill="#29b6f6"/>
<rect class="highlight" x="529" y="212" width="30" height="30" rx="4" ry="4"/>
</g>
</g>
<g filter="url(#softshadow)">
<g filter="url(#glow-yellow)">
<polygon class="edge" points="669,90 681,102 681,136 669,124" fill="#f59e0b"/>
<polygon class="edge" points="635,124 647,136 681,136 669,124" fill="#c56d00"/>
<rect class="front" x="635" y="90" width="34" height="34" rx="7" ry="7" fill="#ffd54f"/>
<rect class="highlight" x="637" y="92" width="30" height="30" rx="4" ry="4"/>
<polygon class="edge" points="709,90 721,102 721,136 709,124" fill="#f59e0b"/>
<polygon class="edge" points="675,124 687,136 721,136 709,124" fill="#c56d00"/>
<rect class="front" x="675" y="90" width="34" height="34" rx="7" ry="7" fill="#ffd54f"/>
<rect class="highlight" x="677" y="92" width="30" height="30" rx="4" ry="4"/>
<polygon class="edge" points="749,90 761,102 761,136 749,124" fill="#f59e0b"/>
<polygon class="edge" points="715,124 727,136 761,136 749,124" fill="#c56d00"/>
<rect class="front" x="715" y="90" width="34" height="34" rx="7" ry="7" fill="#ffd54f"/>
<rect class="highlight" x="717" y="92" width="30" height="30" rx="4" ry="4"/>
<polygon class="edge" points="789,90 801,102 801,136 789,124" fill="#f59e0b"/>
<polygon class="edge" points="755,124 767,136 801,136 789,124" fill="#c56d00"/>
<rect class="front" x="755" y="90" width="34" height="34" rx="7" ry="7" fill="#ffd54f"/>
<rect class="highlight" x="757" y="92" width="30" height="30" rx="4" ry="4"/>
<polygon class="edge" points="669,130 681,142 681,176 669,164" fill="#f59e0b"/>
<polygon class="edge" points="635,164 647,176 681,176 669,164" fill="#c56d00"/>
<rect class="front" x="635" y="130" width="34" height="34" rx="7" ry="7" fill="#ffd54f"/>
<rect class="highlight" x="637" y="132" width="30" height="30" rx="4" ry="4"/>
<polygon class="edge" points="669,170 681,182 681,216 669,204" fill="#f59e0b"/>
<polygon class="edge" points="635,204 647,216 681,216 669,204" fill="#c56d00"/>
<rect class="front" x="635" y="170" width="34" height="34" rx="7" ry="7" fill="#ffd54f"/>
<rect class="highlight" x="637" y="172" width="30" height="30" rx="4" ry="4"/>
<polygon class="edge" points="709,170 721,182 721,216 709,204" fill="#f59e0b"/>
<polygon class="edge" points="675,204 687,216 721,216 709,204" fill="#c56d00"/>
<rect class="front" x="675" y="170" width="34" height="34" rx="7" ry="7" fill="#ffd54f"/>
<rect class="highlight" x="677" y="172" width="30" height="30" rx="4" ry="4"/>
<polygon class="edge" points="749,170 761,182 761,216 749,204" fill="#f59e0b"/>
<polygon class="edge" points="715,204 727,216 761,216 749,204" fill="#c56d00"/>
<rect class="front" x="715" y="170" width="34" height="34" rx="7" ry="7" fill="#ffd54f"/>
<rect class="highlight" x="717" y="172" width="30" height="30" rx="4" ry="4"/>
<polygon class="edge" points="669,210 681,222 681,256 669,244" fill="#f59e0b"/>
<polygon class="edge" points="635,244 647,256 681,256 669,244" fill="#c56d00"/>
<rect class="front" x="635" y="210" width="34" height="34" rx="7" ry="7" fill="#ffd54f"/>
<rect class="highlight" x="637" y="212" width="30" height="30" rx="4" ry="4"/>
<polygon class="edge" points="709,210 721,222 721,256 709,244" fill="#f59e0b"/>
<polygon class="edge" points="675,244 687,256 721,256 709,244" fill="#c56d00"/>
<rect class="front" x="675" y="210" width="34" height="34" rx="7" ry="7" fill="#ffd54f"/>
<rect class="highlight" x="677" y="212" width="30" height="30" rx="4" ry="4"/>
<polygon class="edge" points="749,210 761,222 761,256 749,244" fill="#f59e0b"/>
<polygon class="edge" points="715,244 727,256 761,256 749,244" fill="#c56d00"/>
<rect class="front" x="715" y="210" width="34" height="34" rx="7" ry="7" fill="#ffd54f"/>
<rect class="highlight" x="717" y="212" width="30" height="30" rx="4" ry="4"/>
<polygon class="edge" points="789,210 801,222 801,256 789,244" fill="#f59e0b"/>
<polygon class="edge" points="755,244 767,256 801,256 789,244" fill="#c56d00"/>
<rect class="front" x="755" y="210" width="34" height="34" rx="7" ry="7" fill="#ffd54f"/>
<rect class="highlight" x="757" y="212" width="30" height="30" rx="4" ry="4"/>
</g>
</g>
<g filter="url(#softshadow)">
<g filter="url(#glow-cyan)">
<polygon class="edge" points="857,90 869,102 869,136 857,124" fill="#0b5bd3"/>
<polygon class="edge" points="823,124 835,136 869,136 857,124" fill="#0747a6"/>
<rect class="front" x="823" y="90" width="34" height="34" rx="7" ry="7" fill="#29b6f6"/>
<rect class="highlight" x="825" y="92" width="30" height="30" rx="4" ry="4"/>
<polygon class="edge" points="897,90 909,102 909,136 897,124" fill="#0b5bd3"/>
<polygon class="edge" points="863,124 875,136 909,136 897,124" fill="#0747a6"/>
<rect class="front" x="863" y="90" width="34" height="34" rx="7" ry="7" fill="#29b6f6"/>
<rect class="highlight" x="865" y="92" width="30" height="30" rx="4" ry="4"/>
<polygon class="edge" points="937,90 949,102 949,136 937,124" fill="#0b5bd3"/>
<polygon class="edge" points="903,124 915,136 949,136 937,124" fill="#0747a6"/>
<rect class="front" x="903" y="90" width="34" height="34" rx="7" ry="7" fill="#29b6f6"/>
<rect class="highlight" x="905" y="92" width="30" height="30" rx="4" ry="4"/>
<polygon class="edge" points="977,90 989,102 989,136 977,124" fill="#0b5bd3"/>
<polygon class="edge" points="943,124 955,136 989,136 977,124" fill="#0747a6"/>
<rect class="front" x="943" y="90" width="34" height="34" rx="7" ry="7" fill="#29b6f6"/>
<rect class="highlight" x="945" y="92" width="30" height="30" rx="4" ry="4"/>
<polygon class="edge" points="937,130 949,142 949,176 937,164" fill="#0b5bd3"/>
<polygon class="edge" points="903,164 915,176 949,176 937,164" fill="#0747a6"/>
<rect class="front" x="903" y="130" width="34" height="34" rx="7" ry="7" fill="#29b6f6"/>
<rect class="highlight" x="905" y="132" width="30" height="30" rx="4" ry="4"/>
<polygon class="edge" points="937,170 949,182 949,216 937,204" fill="#0b5bd3"/>
<polygon class="edge" points="903,204 915,216 949,216 937,204" fill="#0747a6"/>
<rect class="front" x="903" y="170" width="34" height="34" rx="7" ry="7" fill="#29b6f6"/>
<rect class="highlight" x="905" y="172" width="30" height="30" rx="4" ry="4"/>
<polygon class="edge" points="937,210 949,222 949,256 937,244" fill="#0b5bd3"/>
<polygon class="edge" points="903,244 915,256 949,256 937,244" fill="#0747a6"/>
<rect class="front" x="903" y="210" width="34" height="34" rx="7" ry="7" fill="#29b6f6"/>
<rect class="highlight" x="905" y="212" width="30" height="30" rx="4" ry="4"/>
</g>
</g>
<g filter="url(#softshadow)">
<g filter="url(#glow-purple)">
<polygon class="edge" points="1045,90 1057,102 1057,136 1045,124" fill="#5b1b9a"/>
<polygon class="edge" points="1011,124 1023,136 1057,136 1045,124" fill="#3e1172"/>
<rect class="front" x="1011" y="90" width="34" height="34" rx="7" ry="7" fill="#ab47bc"/>
<rect class="highlight" x="1013" y="92" width="30" height="30" rx="4" ry="4"/>
<polygon class="edge" points="1085,90 1097,102 1097,136 1085,124" fill="#5b1b9a"/>
<polygon class="edge" points="1051,124 1063,136 1097,136 1085,124" fill="#3e1172"/>
<rect class="front" x="1051" y="90" width="34" height="34" rx="7" ry="7" fill="#ab47bc"/>
<rect class="highlight" x="1053" y="92" width="30" height="30" rx="4" ry="4"/>
<polygon class="edge" points="1125,90 1137,102 1137,136 1125,124" fill="#5b1b9a"/>
<polygon class="edge" points="1091,124 1103,136 1137,136 1125,124" fill="#3e1172"/>
<rect class="front" x="1091" y="90" width="34" height="34" rx="7" ry="7" fill="#ab47bc"/>
<rect class="highlight" x="1093" y="92" width="30" height="30" rx="4" ry="4"/>
<polygon class="edge" points="1045,130 1057,142 1057,176 1045,164" fill="#5b1b9a"/>
<polygon class="edge" points="1011,164 1023,176 1057,176 1045,164" fill="#3e1172"/>
<rect class="front" x="1011" y="130" width="34" height="34" rx="7" ry="7" fill="#ab47bc"/>
<rect class="highlight" x="1013" y="132" width="30" height="30" rx="4" ry="4"/>
<polygon class="edge" points="1125,130 1137,142 1137,176 1125,164" fill="#5b1b9a"/>
<polygon class="edge" points="1091,164 1103,176 1137,176 1125,164" fill="#3e1172"/>
<rect class="front" x="1091" y="130" width="34" height="34" rx="7" ry="7" fill="#ab47bc"/>
<rect class="highlight" x="1093" y="132" width="30" height="30" rx="4" ry="4"/>
<polygon class="edge" points="1045,170 1057,182 1057,216 1045,204" fill="#5b1b9a"/>
<polygon class="edge" points="1011,204 1023,216 1057,216 1045,204" fill="#3e1172"/>
<rect class="front" x="1011" y="170" width="34" height="34" rx="7" ry="7" fill="#ab47bc"/>
<rect class="highlight" x="1013" y="172" width="30" height="30" rx="4" ry="4"/>
<polygon class="edge" points="1085,170 1097,182 1097,216 1085,204" fill="#5b1b9a"/>
<polygon class="edge" points="1051,204 1063,216 1097,216 1085,204" fill="#3e1172"/>
<rect class="front" x="1051" y="170" width="34" height="34" rx="7" ry="7" fill="#ab47bc"/>
<rect class="highlight" x="1053" y="172" width="30" height="30" rx="4" ry="4"/>
<polygon class="edge" points="1125,170 1137,182 1137,216 1125,204" fill="#5b1b9a"/>
<polygon class="edge" points="1091,204 1103,216 1137,216 1125,204" fill="#3e1172"/>
<rect class="front" x="1091" y="170" width="34" height="34" rx="7" ry="7" fill="#ab47bc"/>
<rect class="highlight" x="1093" y="172" width="30" height="30" rx="4" ry="4"/>
<polygon class="edge" points="1045,210 1057,222 1057,256 1045,244" fill="#5b1b9a"/>
<polygon class="edge" points="1011,244 1023,256 1057,256 1045,244" fill="#3e1172"/>
<rect class="front" x="1011" y="210" width="34" height="34" rx="7" ry="7" fill="#ab47bc"/>
<rect class="highlight" x="1013" y="212" width="30" height="30" rx="4" ry="4"/>
<polygon class="edge" points="1165,210 1177,222 1177,256 1165,244" fill="#5b1b9a"/>
<polygon class="edge" points="1131,244 1143,256 1177,256 1165,244" fill="#3e1172"/>
<rect class="front" x="1131" y="210" width="34" height="34" rx="7" ry="7" fill="#ab47bc"/>
<rect class="highlight" x="1133" y="212" width="30" height="30" rx="4" ry="4"/>
</g>
</g>
<g filter="url(#softshadow)">
<g filter="url(#glow-yellow)">
<polygon class="edge" points="1233,90 1245,102 1245,136 1233,124" fill="#f59e0b"/>
<polygon class="edge" points="1199,124 1211,136 1245,136 1233,124" fill="#c56d00"/>
<rect class="front" x="1199" y="90" width="34" height="34" rx="7" ry="7" fill="#ffd54f"/>
<rect class="highlight" x="1201" y="92" width="30" height="30" rx="4" ry="4"/>
<polygon class="edge" points="1273,90 1285,102 1285,136 1273,124" fill="#f59e0b"/>
<polygon class="edge" points="1239,124 1251,136 1285,136 1273,124" fill="#c56d00"/>
<rect class="front" x="1239" y="90" width="34" height="34" rx="7" ry="7" fill="#ffd54f"/>
<rect class="highlight" x="1241" y="92" width="30" height="30" rx="4" ry="4"/>
<polygon class="edge" points="1313,90 1325,102 1325,136 1313,124" fill="#f59e0b"/>
<polygon class="edge" points="1279,124 1291,136 1325,136 1313,124" fill="#c56d00"/>
<rect class="front" x="1279" y="90" width="34" height="34" rx="7" ry="7" fill="#ffd54f"/>
<rect class="highlight" x="1281" y="92" width="30" height="30" rx="4" ry="4"/>
<polygon class="edge" points="1353,90 1365,102 1365,136 1353,124" fill="#f59e0b"/>
<polygon class="edge" points="1319,124 1331,136 1365,136 1353,124" fill="#c56d00"/>
<rect class="front" x="1319" y="90" width="34" height="34" rx="7" ry="7" fill="#ffd54f"/>
<rect class="highlight" x="1321" y="92" width="30" height="30" rx="4" ry="4"/>
<polygon class="edge" points="1233,130 1245,142 1245,176 1233,164" fill="#f59e0b"/>
<polygon class="edge" points="1199,164 1211,176 1245,176 1233,164" fill="#c56d00"/>
<rect class="front" x="1199" y="130" width="34" height="34" rx="7" ry="7" fill="#ffd54f"/>
<rect class="highlight" x="1201" y="132" width="30" height="30" rx="4" ry="4"/>
<polygon class="edge" points="1353,130 1365,142 1365,176 1353,164" fill="#f59e0b"/>
<polygon class="edge" points="1319,164 1331,176 1365,176 1353,164" fill="#c56d00"/>
<rect class="front" x="1319" y="130" width="34" height="34" rx="7" ry="7" fill="#ffd54f"/>
<rect class="highlight" x="1321" y="132" width="30" height="30" rx="4" ry="4"/>
<polygon class="edge" points="1233,170 1245,182 1245,216 1233,204" fill="#f59e0b"/>
<polygon class="edge" points="1199,204 1211,216 1245,216 1233,204" fill="#c56d00"/>
<rect class="front" x="1199" y="170" width="34" height="34" rx="7" ry="7" fill="#ffd54f"/>
<rect class="highlight" x="1201" y="172" width="30" height="30" rx="4" ry="4"/>
<polygon class="edge" points="1353,170 1365,182 1365,216 1353,204" fill="#f59e0b"/>
<polygon class="edge" points="1319,204 1331,216 1365,216 1353,204" fill="#c56d00"/>
<rect class="front" x="1319" y="170" width="34" height="34" rx="7" ry="7" fill="#ffd54f"/>
<rect class="highlight" x="1321" y="172" width="30" height="30" rx="4" ry="4"/>
<polygon class="edge" points="1233,210 1245,222 1245,256 1233,244" fill="#f59e0b"/>
<polygon class="edge" points="1199,244 1211,256 1245,256 1233,244" fill="#c56d00"/>
<rect class="front" x="1199" y="210" width="34" height="34" rx="7" ry="7" fill="#ffd54f"/>
<rect class="highlight" x="1201" y="212" width="30" height="30" rx="4" ry="4"/>
<polygon class="edge" points="1273,210 1285,222 1285,256 1273,244" fill="#f59e0b"/>
<polygon class="edge" points="1239,244 1251,256 1285,256 1273,244" fill="#c56d00"/>
<rect class="front" x="1239" y="210" width="34" height="34" rx="7" ry="7" fill="#ffd54f"/>
<rect class="highlight" x="1241" y="212" width="30" height="30" rx="4" ry="4"/>
<polygon class="edge" points="1313,210 1325,222 1325,256 1313,244" fill="#f59e0b"/>
<polygon class="edge" points="1279,244 1291,256 1325,256 1313,244" fill="#c56d00"/>
<rect class="front" x="1279" y="210" width="34" height="34" rx="7" ry="7" fill="#ffd54f"/>
<rect class="highlight" x="1281" y="212" width="30" height="30" rx="4" ry="4"/>
<polygon class="edge" points="1353,210 1365,222 1365,256 1353,244" fill="#f59e0b"/>
<polygon class="edge" points="1319,244 1331,256 1365,256 1353,244" fill="#c56d00"/>
<rect class="front" x="1319" y="210" width="34" height="34" rx="7" ry="7" fill="#ffd54f"/>
<rect class="highlight" x="1321" y="212" width="30" height="30" rx="4" ry="4"/>
</g>
</g>
<g filter="url(#softshadow)">
<g filter="url(#glow-pink)">
<polygon class="edge" points="461,344 473,356 473,390 461,378" fill="#8b0b4a"/>
<polygon class="edge" points="427,378 439,390 473,390 461,378" fill="#640633"/>
<rect class="front" x="427" y="344" width="34" height="34" rx="7" ry="7" fill="#ec407a"/>
<rect class="highlight" x="429" y="346" width="30" height="30" rx="4" ry="4"/>
<polygon class="edge" points="621,344 633,356 633,390 621,378" fill="#8b0b4a"/>
<polygon class="edge" points="587,378 599,390 633,390 621,378" fill="#640633"/>
<rect class="front" x="587" y="344" width="34" height="34" rx="7" ry="7" fill="#ec407a"/>
<rect class="highlight" x="589" y="346" width="30" height="30" rx="4" ry="4"/>
<polygon class="edge" points="461,384 473,396 473,430 461,418" fill="#8b0b4a"/>
<polygon class="edge" points="427,418 439,430 473,430 461,418" fill="#640633"/>
<rect class="front" x="427" y="384" width="34" height="34" rx="7" ry="7" fill="#ec407a"/>
<rect class="highlight" x="429" y="386" width="30" height="30" rx="4" ry="4"/>
<polygon class="edge" points="621,384 633,396 633,430 621,418" fill="#8b0b4a"/>
<polygon class="edge" points="587,418 599,430 633,430 621,418" fill="#640633"/>
<rect class="front" x="587" y="384" width="34" height="34" rx="7" ry="7" fill="#ec407a"/>
<rect class="highlight" x="589" y="386" width="30" height="30" rx="4" ry="4"/>
<polygon class="edge" points="461,424 473,436 473,470 461,458" fill="#8b0b4a"/>
<polygon class="edge" points="427,458 439,470 473,470 461,458" fill="#640633"/>
<rect class="front" x="427" y="424" width="34" height="34" rx="7" ry="7" fill="#ec407a"/>
<rect class="highlight" x="429" y="426" width="30" height="30" rx="4" ry="4"/>
<polygon class="edge" points="541,424 553,436 553,470 541,458" fill="#8b0b4a"/>
<polygon class="edge" points="507,458 519,470 553,470 541,458" fill="#640633"/>
<rect class="front" x="507" y="424" width="34" height="34" rx="7" ry="7" fill="#ec407a"/>
<rect class="highlight" x="509" y="426" width="30" height="30" rx="4" ry="4"/>
<polygon class="edge" points="621,424 633,436 633,470 621,458" fill="#8b0b4a"/>
<polygon class="edge" points="587,458 599,470 633,470 621,458" fill="#640633"/>
<rect class="front" x="587" y="424" width="34" height="34" rx="7" ry="7" fill="#ec407a"/>
<rect class="highlight" x="589" y="426" width="30" height="30" rx="4" ry="4"/>
<polygon class="edge" points="461,464 473,476 473,510 461,498" fill="#8b0b4a"/>
<polygon class="edge" points="427,498 439,510 473,510 461,498" fill="#640633"/>
<rect class="front" x="427" y="464" width="34" height="34" rx="7" ry="7" fill="#ec407a"/>
<rect class="highlight" x="429" y="466" width="30" height="30" rx="4" ry="4"/>
<polygon class="edge" points="501,464 513,476 513,510 501,498" fill="#8b0b4a"/>
<polygon class="edge" points="467,498 479,510 513,510 501,498" fill="#640633"/>
<rect class="front" x="467" y="464" width="34" height="34" rx="7" ry="7" fill="#ec407a"/>
<rect class="highlight" x="469" y="466" width="30" height="30" rx="4" ry="4"/>
<polygon class="edge" points="581,464 593,476 593,510 581,498" fill="#8b0b4a"/>
<polygon class="edge" points="547,498 559,510 593,510 581,498" fill="#640633"/>
<rect class="front" x="547" y="464" width="34" height="34" rx="7" ry="7" fill="#ec407a"/>
<rect class="highlight" x="549" y="466" width="30" height="30" rx="4" ry="4"/>
<polygon class="edge" points="621,464 633,476 633,510 621,498" fill="#8b0b4a"/>
<polygon class="edge" points="587,498 599,510 633,510 621,498" fill="#640633"/>
<rect class="front" x="587" y="464" width="34" height="34" rx="7" ry="7" fill="#ec407a"/>
<rect class="highlight" x="589" y="466" width="30" height="30" rx="4" ry="4"/>
</g>
</g>
<g filter="url(#softshadow)">
<g filter="url(#glow-yellow)">
<polygon class="edge" points="689,344 701,356 701,390 689,378" fill="#f59e0b"/>
<polygon class="edge" points="655,378 667,390 701,390 689,378" fill="#c56d00"/>
<rect class="front" x="655" y="344" width="34" height="34" rx="7" ry="7" fill="#ffd54f"/>
<rect class="highlight" x="657" y="346" width="30" height="30" rx="4" ry="4"/>
<polygon class="edge" points="729,344 741,356 741,390 729,378" fill="#f59e0b"/>
<polygon class="edge" points="695,378 707,390 741,390 729,378" fill="#c56d00"/>
<rect class="front" x="695" y="344" width="34" height="34" rx="7" ry="7" fill="#ffd54f"/>
<rect class="highlight" x="697" y="346" width="30" height="30" rx="4" ry="4"/>
<polygon class="edge" points="769,344 781,356 781,390 769,378" fill="#f59e0b"/>
<polygon class="edge" points="735,378 747,390 781,390 769,378" fill="#c56d00"/>
<rect class="front" x="735" y="344" width="34" height="34" rx="7" ry="7" fill="#ffd54f"/>
<rect class="highlight" x="737" y="346" width="30" height="30" rx="4" ry="4"/>
<polygon class="edge" points="809,344 821,356 821,390 809,378" fill="#f59e0b"/>
<polygon class="edge" points="775,378 787,390 821,390 809,378" fill="#c56d00"/>
<rect class="front" x="775" y="344" width="34" height="34" rx="7" ry="7" fill="#ffd54f"/>
<rect class="highlight" x="777" y="346" width="30" height="30" rx="4" ry="4"/>
<polygon class="edge" points="689,384 701,396 701,430 689,418" fill="#f59e0b"/>
<polygon class="edge" points="655,418 667,430 701,430 689,418" fill="#c56d00"/>
<rect class="front" x="655" y="384" width="34" height="34" rx="7" ry="7" fill="#ffd54f"/>
<rect class="highlight" x="657" y="386" width="30" height="30" rx="4" ry="4"/>
<polygon class="edge" points="809,384 821,396 821,430 809,418" fill="#f59e0b"/>
<polygon class="edge" points="775,418 787,430 821,430 809,418" fill="#c56d00"/>
<rect class="front" x="775" y="384" width="34" height="34" rx="7" ry="7" fill="#ffd54f"/>
<rect class="highlight" x="777" y="386" width="30" height="30" rx="4" ry="4"/>
<polygon class="edge" points="689,424 701,436 701,470 689,458" fill="#f59e0b"/>
<polygon class="edge" points="655,458 667,470 701,470 689,458" fill="#c56d00"/>
<rect class="front" x="655" y="424" width="34" height="34" rx="7" ry="7" fill="#ffd54f"/>
<rect class="highlight" x="657" y="426" width="30" height="30" rx="4" ry="4"/>
<polygon class="edge" points="809,424 821,436 821,470 809,458" fill="#f59e0b"/>
<polygon class="edge" points="775,458 787,470 821,470 809,458" fill="#c56d00"/>
<rect class="front" x="775" y="424" width="34" height="34" rx="7" ry="7" fill="#ffd54f"/>
<rect class="highlight" x="777" y="426" width="30" height="30" rx="4" ry="4"/>
<polygon class="edge" points="689,464 701,476 701,510 689,498" fill="#f59e0b"/>
<polygon class="edge" points="655,498 667,510 701,510 689,498" fill="#c56d00"/>
<rect class="front" x="655" y="464" width="34" height="34" rx="7" ry="7" fill="#ffd54f"/>
<rect class="highlight" x="657" y="466" width="30" height="30" rx="4" ry="4"/>
<polygon class="edge" points="729,464 741,476 741,510 729,498" fill="#f59e0b"/>
<polygon class="edge" points="695,498 707,510 741,510 729,498" fill="#c56d00"/>
<rect class="front" x="695" y="464" width="34" height="34" rx="7" ry="7" fill="#ffd54f"/>
<rect class="highlight" x="697" y="466" width="30" height="30" rx="4" ry="4"/>
<polygon class="edge" points="769,464 781,476 781,510 769,498" fill="#f59e0b"/>
<polygon class="edge" points="735,498 747,510 781,510 769,498" fill="#c56d00"/>
<rect class="front" x="735" y="464" width="34" height="34" rx="7" ry="7" fill="#ffd54f"/>
<rect class="highlight" x="737" y="466" width="30" height="30" rx="4" ry="4"/>
<polygon class="edge" points="809,464 821,476 821,510 809,498" fill="#f59e0b"/>
<polygon class="edge" points="775,498 787,510 821,510 809,498" fill="#c56d00"/>
<rect class="front" x="775" y="464" width="34" height="34" rx="7" ry="7" fill="#ffd54f"/>
<rect class="highlight" x="777" y="466" width="30" height="30" rx="4" ry="4"/>
</g>
</g>
<g filter="url(#softshadow)">
<g filter="url(#glow-green)">
<polygon class="edge" points="877,344 889,356 889,390 877,378" fill="#167f3a"/>
<polygon class="edge" points="843,378 855,390 889,390 877,378" fill="#0f5a29"/>
<rect class="front" x="843" y="344" width="34" height="34" rx="7" ry="7" fill="#66bb6a"/>
<rect class="highlight" x="845" y="346" width="30" height="30" rx="4" ry="4"/>
<polygon class="edge" points="917,344 929,356 929,390 917,378" fill="#167f3a"/>
<polygon class="edge" points="883,378 895,390 929,390 917,378" fill="#0f5a29"/>
<rect class="front" x="883" y="344" width="34" height="34" rx="7" ry="7" fill="#66bb6a"/>
<rect class="highlight" x="885" y="346" width="30" height="30" rx="4" ry="4"/>
<polygon class="edge" points="957,344 969,356 969,390 957,378" fill="#167f3a"/>
<polygon class="edge" points="923,378 935,390 969,390 957,378" fill="#0f5a29"/>
<rect class="front" x="923" y="344" width="34" height="34" rx="7" ry="7" fill="#66bb6a"/>
<rect class="highlight" x="925" y="346" width="30" height="30" rx="4" ry="4"/>
<polygon class="edge" points="877,384 889,396 889,430 877,418" fill="#167f3a"/>
<polygon class="edge" points="843,418 855,430 889,430 877,418" fill="#0f5a29"/>
<rect class="front" x="843" y="384" width="34" height="34" rx="7" ry="7" fill="#66bb6a"/>
<rect class="highlight" x="845" y="386" width="30" height="30" rx="4" ry="4"/>
<polygon class="edge" points="957,384 969,396 969,430 957,418" fill="#167f3a"/>
<polygon class="edge" points="923,418 935,430 969,430 957,418" fill="#0f5a29"/>
<rect class="front" x="923" y="384" width="34" height="34" rx="7" ry="7" fill="#66bb6a"/>
<rect class="highlight" x="925" y="386" width="30" height="30" rx="4" ry="4"/>
<polygon class="edge" points="877,424 889,436 889,470 877,458" fill="#167f3a"/>
<polygon class="edge" points="843,458 855,470 889,470 877,458" fill="#0f5a29"/>
<rect class="front" x="843" y="424" width="34" height="34" rx="7" ry="7" fill="#66bb6a"/>
<rect class="highlight" x="845" y="426" width="30" height="30" rx="4" ry="4"/>
<polygon class="edge" points="917,424 929,436 929,470 917,458" fill="#167f3a"/>
<polygon class="edge" points="883,458 895,470 929,470 917,458" fill="#0f5a29"/>
<rect class="front" x="883" y="424" width="34" height="34" rx="7" ry="7" fill="#66bb6a"/>
<rect class="highlight" x="885" y="426" width="30" height="30" rx="4" ry="4"/>
<polygon class="edge" points="957,424 969,436 969,470 957,458" fill="#167f3a"/>
<polygon class="edge" points="923,458 935,470 969,470 957,458" fill="#0f5a29"/>
<rect class="front" x="923" y="424" width="34" height="34" rx="7" ry="7" fill="#66bb6a"/>
<rect class="highlight" x="925" y="426" width="30" height="30" rx="4" ry="4"/>
<polygon class="edge" points="877,464 889,476 889,510 877,498" fill="#167f3a"/>
<polygon class="edge" points="843,498 855,510 889,510 877,498" fill="#0f5a29"/>
<rect class="front" x="843" y="464" width="34" height="34" rx="7" ry="7" fill="#66bb6a"/>
<rect class="highlight" x="845" y="466" width="30" height="30" rx="4" ry="4"/>
<polygon class="edge" points="997,464 1009,476 1009,510 997,498" fill="#167f3a"/>
<polygon class="edge" points="963,498 975,510 1009,510 997,498" fill="#0f5a29"/>
<rect class="front" x="963" y="464" width="34" height="34" rx="7" ry="7" fill="#66bb6a"/>
<rect class="highlight" x="965" y="466" width="30" height="30" rx="4" ry="4"/>
</g>
</g>
<g filter="url(#softshadow)">
<g filter="url(#glow-green)">
<polygon class="edge" points="1065,344 1077,356 1077,390 1065,378" fill="#167f3a"/>
<polygon class="edge" points="1031,378 1043,390 1077,390 1065,378" fill="#0f5a29"/>
<rect class="front" x="1031" y="344" width="34" height="34" rx="7" ry="7" fill="#66bb6a"/>
<rect class="highlight" x="1033" y="346" width="30" height="30" rx="4" ry="4"/>
<polygon class="edge" points="1065,384 1077,396 1077,430 1065,418" fill="#167f3a"/>
<polygon class="edge" points="1031,418 1043,430 1077,430 1065,418" fill="#0f5a29"/>
<rect class="front" x="1031" y="384" width="34" height="34" rx="7" ry="7" fill="#66bb6a"/>
<rect class="highlight" x="1033" y="386" width="30" height="30" rx="4" ry="4"/>
<polygon class="edge" points="1065,424 1077,436 1077,470 1065,458" fill="#167f3a"/>
<polygon class="edge" points="1031,458 1043,470 1077,470 1065,458" fill="#0f5a29"/>
<rect class="front" x="1031" y="424" width="34" height="34" rx="7" ry="7" fill="#66bb6a"/>
<rect class="highlight" x="1033" y="426" width="30" height="30" rx="4" ry="4"/>
<polygon class="edge" points="1065,464 1077,476 1077,510 1065,498" fill="#167f3a"/>
<polygon class="edge" points="1031,498 1043,510 1077,510 1065,498" fill="#0f5a29"/>
<rect class="front" x="1031" y="464" width="34" height="34" rx="7" ry="7" fill="#66bb6a"/>
<rect class="highlight" x="1033" y="466" width="30" height="30" rx="4" ry="4"/>
<polygon class="edge" points="1105,464 1117,476 1117,510 1105,498" fill="#167f3a"/>
<polygon class="edge" points="1071,498 1083,510 1117,510 1105,498" fill="#0f5a29"/>
<rect class="front" x="1071" y="464" width="34" height="34" rx="7" ry="7" fill="#66bb6a"/>
<rect class="highlight" x="1073" y="466" width="30" height="30" rx="4" ry="4"/>
<polygon class="edge" points="1145,464 1157,476 1157,510 1145,498" fill="#167f3a"/>
<polygon class="edge" points="1111,498 1123,510 1157,510 1145,498" fill="#0f5a29"/>
<rect class="front" x="1111" y="464" width="34" height="34" rx="7" ry="7" fill="#66bb6a"/>
<rect class="highlight" x="1113" y="466" width="30" height="30" rx="4" ry="4"/>
<polygon class="edge" points="1185,464 1197,476 1197,510 1185,498" fill="#167f3a"/>
<polygon class="edge" points="1151,498 1163,510 1197,510 1185,498" fill="#0f5a29"/>
<rect class="front" x="1151" y="464" width="34" height="34" rx="7" ry="7" fill="#66bb6a"/>
<rect class="highlight" x="1153" y="466" width="30" height="30" rx="4" ry="4"/>
</g>
</g>
<g filter="url(#softshadow)">
<g filter="url(#glow-green)">
<polygon class="edge" points="1253,344 1265,356 1265,390 1253,378" fill="#167f3a"/>
<polygon class="edge" points="1219,378 1231,390 1265,390 1253,378" fill="#0f5a29"/>
<rect class="front" x="1219" y="344" width="34" height="34" rx="7" ry="7" fill="#66bb6a"/>
<rect class="highlight" x="1221" y="346" width="30" height="30" rx="4" ry="4"/>
<polygon class="edge" points="1293,344 1305,356 1305,390 1293,378" fill="#167f3a"/>
<polygon class="edge" points="1259,378 1271,390 1305,390 1293,378" fill="#0f5a29"/>
<rect class="front" x="1259" y="344" width="34" height="34" rx="7" ry="7" fill="#66bb6a"/>
<rect class="highlight" x="1261" y="346" width="30" height="30" rx="4" ry="4"/>
<polygon class="edge" points="1333,344 1345,356 1345,390 1333,378" fill="#167f3a"/>
<polygon class="edge" points="1299,378 1311,390 1345,390 1333,378" fill="#0f5a29"/>
<rect class="front" x="1299" y="344" width="34" height="34" rx="7" ry="7" fill="#66bb6a"/>
<rect class="highlight" x="1301" y="346" width="30" height="30" rx="4" ry="4"/>
<polygon class="edge" points="1253,384 1265,396 1265,430 1253,418" fill="#167f3a"/>
<polygon class="edge" points="1219,418 1231,430 1265,430 1253,418" fill="#0f5a29"/>
<rect class="front" x="1219" y="384" width="34" height="34" rx="7" ry="7" fill="#66bb6a"/>
<rect class="highlight" x="1221" y="386" width="30" height="30" rx="4" ry="4"/>
<polygon class="edge" points="1373,384 1385,396 1385,430 1373,418" fill="#167f3a"/>
<polygon class="edge" points="1339,418 1351,430 1385,430 1373,418" fill="#0f5a29"/>
<rect class="front" x="1339" y="384" width="34" height="34" rx="7" ry="7" fill="#66bb6a"/>
<rect class="highlight" x="1341" y="386" width="30" height="30" rx="4" ry="4"/>
<polygon class="edge" points="1253,424 1265,436 1265,470 1253,458" fill="#167f3a"/>
<polygon class="edge" points="1219,458 1231,470 1265,470 1253,458" fill="#0f5a29"/>
<rect class="front" x="1219" y="424" width="34" height="34" rx="7" ry="7" fill="#66bb6a"/>
<rect class="highlight" x="1221" y="426" width="30" height="30" rx="4" ry="4"/>
<polygon class="edge" points="1373,424 1385,436 1385,470 1373,458" fill="#167f3a"/>
<polygon class="edge" points="1339,458 1351,470 1385,470 1373,458" fill="#0f5a29"/>
<rect class="front" x="1339" y="424" width="34" height="34" rx="7" ry="7" fill="#66bb6a"/>
<rect class="highlight" x="1341" y="426" width="30" height="30" rx="4" ry="4"/>
<polygon class="edge" points="1253,464 1265,476 1265,510 1253,498" fill="#167f3a"/>
<polygon class="edge" points="1219,498 1231,510 1265,510 1253,498" fill="#0f5a29"/>
<rect class="front" x="1219" y="464" width="34" height="34" rx="7" ry="7" fill="#66bb6a"/>
<rect class="highlight" x="1221" y="466" width="30" height="30" rx="4" ry="4"/>
<polygon class="edge" points="1293,464 1305,476 1305,510 1293,498" fill="#167f3a"/>
<polygon class="edge" points="1259,498 1271,510 1305,510 1293,498" fill="#0f5a29"/>
<rect class="front" x="1259" y="464" width="34" height="34" rx="7" ry="7" fill="#66bb6a"/>
<rect class="highlight" x="1261" y="466" width="30" height="30" rx="4" ry="4"/>
<polygon class="edge" points="1333,464 1345,476 1345,510 1333,498" fill="#167f3a"/>
<polygon class="edge" points="1299,498 1311,510 1345,510 1333,498" fill="#0f5a29"/>
<rect class="front" x="1299" y="464" width="34" height="34" rx="7" ry="7" fill="#66bb6a"/>
<rect class="highlight" x="1301" y="466" width="30" height="30" rx="4" ry="4"/>
</g>
</g>
<g opacity="0.65" filter="url(#glow-yellow)"><rect x="427" y="524" width="946" height="7" rx="3.5" ry="3.5" fill="#ffd54f"/></g>
</svg>
