<svg width="640" height="360" viewBox="0 0 640 360" fill="none" xmlns="http://www.w3.org/2000/svg">
  <rect width="640" height="360" rx="32" fill="#09111F"/>
  <rect x="24" y="24" width="592" height="312" rx="24" fill="url(#bg)"/>
  <path d="M48 110H592" stroke="#5FC9FF" stroke-opacity=".25" stroke-width="2"/>
  <path d="M48 262H592" stroke="#FFD35A" stroke-opacity=".35" stroke-width="2"/>
  <g opacity=".8">
    <rect x="120" y="88" width="18" height="18" rx="4" fill="#5FC9FF"/>
    <rect x="140" y="88" width="18" height="18" rx="4" fill="#5FC9FF"/>
    <rect x="160" y="88" width="18" height="18" rx="4" fill="#5FC9FF"/>
    <rect x="180" y="88" width="18" height="18" rx="4" fill="#5FC9FF"/>
    <rect x="280" y="88" width="18" height="18" rx="4" fill="#B66CFF"/>
    <rect x="300" y="88" width="18" height="18" rx="4" fill="#B66CFF"/>
    <rect x="320" y="88" width="18" height="18" rx="4" fill="#B66CFF"/>
    <rect x="300" y="108" width="18" height="18" rx="4" fill="#B66CFF"/>
    <rect x="442" y="82" width="24" height="24" rx="5" fill="#FF7A4A"/>
    <rect x="468" y="82" width="24" height="24" rx="5" fill="#FF7A4A"/>
    <rect x="494" y="82" width="24" height="24" rx="5" fill="#FF7A4A"/>
    <rect x="520" y="82" width="24" height="24" rx="5" fill="#FF7A4A"/>
    <rect x="442" y="108" width="24" height="24" rx="5" fill="#FF7A4A"/>
    <rect x="494" y="108" width="24" height="24" rx="5" fill="#FF7A4A"/>
    <rect x="520" y="108" width="24" height="24" rx="5" fill="#FF7A4A"/>
  </g>
  <g opacity=".85">
    <rect x="216" y="230" width="20" height="20" rx="4" fill="#FFE066"/>
    <rect x="238" y="230" width="20" height="20" rx="4" fill="#FFE066"/>
    <rect x="260" y="230" width="20" height="20" rx="4" fill="#FFE066"/>
    <rect x="282" y="230" width="20" height="20" rx="4" fill="#FFE066"/>
    <rect x="304" y="230" width="20" height="20" rx="4" fill="#FFE066"/>
    <rect x="326" y="230" width="20" height="20" rx="4" fill="#FFE066"/>
    <rect x="348" y="230" width="20" height="20" rx="4" fill="#FFE066"/>
    <rect x="370" y="230" width="20" height="20" rx="4" fill="#FFE066"/>
  </g>
  <g filter="url(#glow)">
    <rect x="292" y="276" width="56" height="20" rx="8" fill="#3BE2FF"/>
    <rect x="306" y="252" width="28" height="26" rx="8" fill="#8FF6FF"/>
    <rect x="286" y="284" width="14" height="10" rx="4" fill="#1D82FF"/>
    <rect x="340" y="284" width="14" height="10" rx="4" fill="#1D82FF"/>
    <rect x="317" y="216" width="6" height="28" rx="3" fill="#B8FFFF"/>
  </g>
  <text x="48" y="58" fill="#FFD35A" font-family="monospace" font-size="24" font-weight="700">PIXEL INVASION</text>
  <text x="48" y="320" fill="#B7CAE8" font-family="monospace" font-size="16">Tetrobots en descente. Grille de debris armee.</text>
  <defs>
    <linearGradient id="bg" x1="320" y1="24" x2="320" y2="336" gradientUnits="userSpaceOnUse">
      <stop stop-color="#112548"/>
      <stop offset="1" stop-color="#0A0E1B"/>
    </linearGradient>
    <filter id="glow" x="266" y="196" width="108" height="120" filterUnits="userSpaceOnUse" color-interpolation-filters="sRGB">
      <feFlood flood-opacity="0" result="BackgroundImageFix"/>
      <feBlend mode="normal" in="SourceGraphic" in2="BackgroundImageFix" result="shape"/>
      <feGaussianBlur stdDeviation="8" result="effect1_foregroundBlur"/>
    </filter>
  </defs>
</svg>
